<svg xmlns="http://www.w3.org/2000/svg" width="96" height="96" viewBox="0 0 96 96">
  <g id="ico-payback_year" transform="translate(-7143.194 -2270.102)">
    <g id="Group_973" data-name="Group 973">
      <ellipse id="Ellipse_913" data-name="Ellipse 913" cx="13.356" cy="5.724" rx="13.356" ry="5.724" transform="translate(7177.838 2304.2)" fill="none" stroke="#fc3f07" stroke-linecap="round" stroke-linejoin="round" stroke-width="2"/>
      <path id="Path_555" data-name="Path 555" d="M7204.55,2316.709c0,3.161-5.98,5.724-13.356,5.724s-13.356-2.563-13.356-5.724" fill="none" stroke="#7a96a0" stroke-linecap="round" stroke-linejoin="round" stroke-width="2"/>
      <path id="Path_556" data-name="Path 556" d="M7204.55,2323.494c0,3.161-5.98,5.724-13.356,5.724s-13.356-2.563-13.356-5.724" fill="none" stroke="#7a96a0" stroke-linecap="round" stroke-linejoin="round" stroke-width="2"/>
      <path id="Path_557" data-name="Path 557" d="M7204.55,2330.279c0,3.161-5.98,5.724-13.356,5.724s-13.356-2.563-13.356-5.724" fill="none" stroke="#7a96a0" stroke-linecap="round" stroke-linejoin="round" stroke-width="2"/>
    </g>
    <g id="Group_975" data-name="Group 975">
      <path id="Path_558" data-name="Path 558" d="M7191.194,2286.636a33.206,33.206,0,1,1-16.968,4.653" fill="none" stroke="#7a96a0" stroke-linecap="round" stroke-linejoin="round" stroke-width="2"/>
      <g id="Group_974" data-name="Group 974">
        <path id="Path_559" data-name="Path 559" d="M7193.908,2291.541l-3.511-4.906,4.905-3.51" fill="none" stroke="#7a96a0" stroke-linecap="round" stroke-linejoin="round" stroke-width="2"/>
      </g>
    </g>
    <rect id="Rectangle_629" data-name="Rectangle 629" width="96" height="96" transform="translate(7143.194 2270.102)" fill="none"/>
  </g>
</svg>
