<svg id="ico-paygo-controller" xmlns="http://www.w3.org/2000/svg" viewBox="0 0 40 40">
  <rect id="Rectangle_519" data-name="Rectangle 519" width="40" height="40" fill="none"/>
  <g id="Group_723" data-name="Group 723" transform="translate(5.018 6.706)">
    <path id="Path_501" data-name="Path 501" d="M4899.2,3556.516c-.664,3.983-.972,6.738-3.314,6.738h-16.27c-2.209,0-2.647-2.647-3.31-6.626" transform="translate(-4872.736 -3536.668)" fill="none" stroke="#7a96a0" stroke-linecap="round" stroke-linejoin="round" stroke-width="1"/>
    <g id="Group_721" data-name="Group 721">
      <g id="Group_720" data-name="Group 720">
        <path id="Path_502" data-name="Path 502" d="M4871.813,3530.975c-7.094-7.985-3.028-19.871,4.205-19.96H4890c4.71.2,8.1,4.853,8.1,10.352a14.693,14.693,0,0,1-3.893,9.788C4888.785,3537.358,4878.66,3537.963,4871.813,3530.975Z" transform="translate(-4868.117 -3511.015)" fill="none" stroke="#fc3f07" stroke-linecap="round" stroke-linejoin="round" stroke-width="1"/>
      </g>
    </g>
    <g id="Group_722" data-name="Group 722" transform="translate(7.706 12.551)">
      <rect id="Rectangle_520" data-name="Rectangle 520" width="2.602" height="2.022" rx="1.011" fill="none" stroke="#7a96a0" stroke-linecap="round" stroke-linejoin="round" stroke-width="1"/>
      <rect id="Rectangle_521" data-name="Rectangle 521" width="2.602" height="2.022" rx="1.011" transform="translate(3.991)" fill="none" stroke="#7a96a0" stroke-linecap="round" stroke-linejoin="round" stroke-width="1"/>
      <rect id="Rectangle_522" data-name="Rectangle 522" width="2.602" height="2.022" rx="1.011" transform="translate(7.981)" fill="none" stroke="#7a96a0" stroke-linecap="round" stroke-linejoin="round" stroke-width="1"/>
      <rect id="Rectangle_523" data-name="Rectangle 523" width="2.602" height="2.022" rx="1.011" transform="translate(11.971)" fill="none" stroke="#7a96a0" stroke-linecap="round" stroke-linejoin="round" stroke-width="1"/>
      <rect id="Rectangle_524" data-name="Rectangle 524" width="2.602" height="2.022" rx="1.011" transform="translate(0 3.464)" fill="none" stroke="#7a96a0" stroke-linecap="round" stroke-linejoin="round" stroke-width="1"/>
      <rect id="Rectangle_525" data-name="Rectangle 525" width="2.602" height="2.022" rx="1.011" transform="translate(3.991 3.464)" fill="none" stroke="#7a96a0" stroke-linecap="round" stroke-linejoin="round" stroke-width="1"/>
      <rect id="Rectangle_526" data-name="Rectangle 526" width="2.602" height="2.022" rx="1.011" transform="translate(7.981 3.464)" fill="none" stroke="#7a96a0" stroke-linecap="round" stroke-linejoin="round" stroke-width="1"/>
      <rect id="Rectangle_527" data-name="Rectangle 527" width="2.602" height="2.022" rx="1.011" transform="translate(11.971 3.464)" fill="none" stroke="#7a96a0" stroke-linecap="round" stroke-linejoin="round" stroke-width="1"/>
    </g>
  </g>
</svg>
