<svg id="ico-light" xmlns="http://www.w3.org/2000/svg" viewBox="0 0 40 40">
  <rect id="Rectangle_542" data-name="Rectangle 542" width="40" height="40" fill="none"/>
  <g id="Group_738" data-name="Group 738" transform="translate(4.762 2.723)">
    <g id="Group_737" data-name="Group 737">
      <line id="Line_166" data-name="Line 166" y1="18.775" transform="translate(15.084)" fill="#fff" stroke="#7a96a0" stroke-linecap="round" stroke-linejoin="round" stroke-width="1"/>
      <path id="Path_509" data-name="Path 509" d="M5480.737,3550.924c.464,0,.914,0,1.354.008l-.482-2.235h-1.743l-.482,2.235C5479.823,3550.927,5480.272,3550.924,5480.737,3550.924Z" transform="translate(-5465.653 -3529.922)" fill="none" stroke="#fc3f07" stroke-linecap="round" stroke-linejoin="round" stroke-width="1"/>
      <path id="Path_510" data-name="Path 510" d="M5464.739,3571.066c7.468,0,13.523-3.076,13.523-6.871h-27.047C5451.216,3567.99,5457.271,3571.066,5464.739,3571.066Z" transform="translate(-5449.656 -3537.899)" fill="none" stroke="#7a96a0" stroke-linecap="round" stroke-linejoin="round" stroke-width="1"/>
      <path id="Path_511" data-name="Path 511" d="M5463.085,3553.285c-12.5,0-15.084,2.37-15.084,5.295h30.168C5478.169,3555.655,5475.588,3553.285,5463.085,3553.285Z" transform="translate(-5448.001 -3532.283)" fill="none" stroke="#fc3f07" stroke-linecap="round" stroke-linejoin="round" stroke-width="1"/>
    </g>
  </g>
</svg>
