<svg xmlns="http://www.w3.org/2000/svg" viewBox="0 0 96 96"><defs><style>.cls-1,.cls-2,.cls-3{fill:none;}.cls-1{stroke:#80939e;}.cls-1,.cls-3{stroke-linecap:round;stroke-linejoin:round;stroke-width:2px;}.cls-3{stroke:#fc3f07;}</style></defs><g id="Layer_2" data-name="Layer 2"><g id="Layer_1-2" data-name="Layer 1"><g id="Group_944" data-name="Group 944"><g id="Group_946" data-name="Group 946"><path id="Path_527" data-name="Path 527" class="cls-1" d="M59.13,12.1H36.87S27.54,24.54,14.3,24.54c0,15.65,5.12,48.6,33.7,59.36C76.59,73.14,81.7,40.19,81.7,24.54,68.46,24.54,59.13,12.1,59.13,12.1Z"/></g><rect id="Rectangle_624" data-name="Rectangle 624" class="cls-2" width="96" height="96"/></g><g id="Group_1100" data-name="Group 1100"><g id="Group_1099" data-name="Group 1099"><path id="Path_1016" data-name="Path 1016" class="cls-3" d="M52.12,46.17s3.31-.32,2.7,9.35c.38,2.65,5.6,7.48,5.6,7.48"/><path id="Path_1017" data-name="Path 1017" class="cls-3" d="M57.85,46.71l0,4,5.4,4.46"/><path id="Path_1018" data-name="Path 1018" class="cls-3" d="M51.76,38.39v-.24c0-2.14-1.09-2.6-2.58-2.7a1.84,1.84,0,0,0,1.41-1.59c0-.94-1.08-1.72-2.47-1.8h-.25c-1.38.08-2.47.86-2.47,1.8a1.88,1.88,0,0,0,1.42,1.59c-1.49.1-2.59.56-2.59,2.69v.25c-3.57.73-17,3.62-15.83,5.8,1.27,2.34,9.71,5.24,16.84-.94.1.22.2.43.31.64-1,.18-1.68.73-1.68,2.28,0,2.62,1.84,11.66,4,12.33v0h.25v0c2.16-.67,4-9.71,4-12.33,0-1.55-.69-2.1-1.68-2.28.11-.2.21-.42.31-.64,7.14,6.18,15.57,3.28,16.84.94C68.77,42,55.33,39.12,51.76,38.39Z"/><path id="Path_1019" data-name="Path 1019" class="cls-3" d="M35.58,28.63s6.5,3.17,5.59,4.61-1.29,3,3.12,4.14"/><path id="Path_1020" data-name="Path 1020" class="cls-3" d="M43.88,46.17s-3.31-.32-2.7,9.35c-.38,2.65-5.6,7.48-5.6,7.48"/><path id="Path_1021" data-name="Path 1021" class="cls-3" d="M38.15,46.71l0,4-5.4,4.46"/><path id="Path_1022" data-name="Path 1022" class="cls-3" d="M60.42,28.63s-6.5,3.17-5.59,4.61,1.29,3-3.12,4.14"/><path id="Path_1023" data-name="Path 1023" class="cls-3" d="M50.75,43.25a2.87,2.87,0,0,1-5.5,0"/><path class="cls-3" d="M49.18,35.45a6.32,6.32,0,0,1-1.18.19,6.15,6.15,0,0,1-1.18-.19"/></g></g></g></g></svg>