<svg xmlns="http://www.w3.org/2000/svg" xmlns:xlink="http://www.w3.org/1999/xlink" width="96" height="96" viewBox="0 0 96 96">
  <defs>
    <clipPath id="clip-path">
      <rect id="Rectangle_690" data-name="Rectangle 690" width="68" height="46" fill="none"/>
    </clipPath>
  </defs>
  <g id="ico-advanced_motor_design" transform="translate(-6536.888 -2272.223)">
    <rect id="Rectangle_626" data-name="Rectangle 626" width="96" height="96" transform="translate(6536.888 2272.223)" fill="none"/>
    <g id="Group_1102" data-name="Group 1102" transform="translate(6550.888 2297.223)">
      <g id="Group_1101" data-name="Group 1101" transform="translate(0 0)" clip-path="url(#clip-path)">
        <path id="Path_1024" data-name="Path 1024" d="M53.782,8.381a4.428,4.428,0,0,1,0,8.855H12.559" transform="translate(0.003 0.05)" fill="none" stroke="#7a96a0" stroke-linecap="round" stroke-linejoin="round" stroke-width="2"/>
        <path id="Path_1025" data-name="Path 1025" d="M52.677,40.353a4.4,4.4,0,1,0,4.4-4.427H15.856" transform="translate(0.004 0.213)" fill="none" stroke="#fb3f07" stroke-linecap="round" stroke-linejoin="round" stroke-width="2"/>
        <path id="Path_1026" data-name="Path 1026" d="M41.4,12.853A11.786,11.786,0,1,1,53.191,24.706H1" transform="translate(0 0.006)" fill="none" stroke="#fb3f07" stroke-linecap="round" stroke-linejoin="round" stroke-width="2"/>
        <path id="Path_1027" data-name="Path 1027" d="M56.9,30.244A10.114,10.114,0,0,1,66.986,40.387" transform="translate(0.015 0.18)" fill="none" stroke="#7a96a0" stroke-linecap="round" stroke-linejoin="round" stroke-width="2"/>
        <line id="Line_229" data-name="Line 229" x1="23.725" transform="translate(32.291 30.424)" fill="none" stroke="#7a96a0" stroke-linecap="round" stroke-linejoin="round" stroke-width="2"/>
      </g>
    </g>
  </g>
</svg>
