<svg xmlns="http://www.w3.org/2000/svg" width="35" height="35" viewBox="0 0 35 35">
  <path id="ico-phone" d="M7001.742,3229.229a17.5,17.5,0,1,1-17.474,17.54A17.55,17.55,0,0,1,7001.742,3229.229Zm-3.29,8.413c-.832.619-1.639,1.18-2.4,1.8a3.59,3.59,0,0,0-1.284,4.076,17.663,17.663,0,0,0,9.579,11.649,2.623,2.623,0,0,0,2.108.137,8.393,8.393,0,0,0,3.735-2.864l-3.747-3.537c-.61.506-1.159,1.01-1.755,1.446-.771.562-1.028.526-1.752-.062a16.163,16.163,0,0,1-4.061-5.272.912.912,0,0,1,.193-1.282c.651-.53,1.331-1.025,2.037-1.564Z" transform="translate(-6984.268 -3229.229)" fill="#fc4803"/>
</svg>
