<svg xmlns="http://www.w3.org/2000/svg" viewBox="0 0 96 96"><defs><style>.cls-1,.cls-2,.cls-3,.cls-4{fill:none;}.cls-1{stroke:#fc3f07;}.cls-1,.cls-2,.cls-3{stroke-linecap:round;stroke-linejoin:round;stroke-width:2px;}.cls-2,.cls-3{stroke:#7a96a0;}.cls-3{stroke-dasharray:5.52 5.52;}</style></defs><g id="Layer_2" data-name="Layer 2"><g id="Layer_1-2" data-name="Layer 1"><path class="cls-1" d="M48,31.26c0-4.23-2-5-4.65-5s-8.64,2.57-8.64,10.29C34.71,46.88,48,48,48,48Z"/><path class="cls-1" d="M31.26,48c-4.23,0-5,2-5,4.65s2.57,8.64,10.29,8.64C46.88,61.29,48,48,48,48Z"/><path class="cls-1" d="M48,64.74c0,4.23,2,5,4.65,5s8.64-2.57,8.64-10.29C61.29,49.12,48,48,48,48Z"/><path class="cls-1" d="M64.74,48c4.23,0,5-2,5-4.65s-2.57-8.64-10.29-8.64C49.12,34.71,48,48,48,48Z"/><path class="cls-2" d="M83.44,48q0,1.52-.12,3"/><path class="cls-3" d="M82.43,56.44A35.49,35.49,0,0,1,53.74,83"/><path class="cls-2" d="M51,83.32q-1.48.12-3,.12"/><path class="cls-2" d="M37.85,82A35.45,35.45,0,1,1,82,37.8"/><rect class="cls-4" width="96" height="96"/></g></g></svg>