<svg xmlns="http://www.w3.org/2000/svg" viewBox="0 0 96 96"><defs><style>.cls-1,.cls-2,.cls-3{fill:none;}.cls-1{stroke:#7a96a0;}.cls-1,.cls-2{stroke-linecap:round;stroke-linejoin:round;stroke-width:2px;}.cls-2{stroke:#fc3f07;}</style></defs><g id="Layer_2" data-name="Layer 2"><g id="Layer_1-2" data-name="Layer 1"><path class="cls-1" d="M74,65.35H22c-2.53,0-4.58-1-4.58-2.29v6.4c0,1.26,2.05,2.29,4.58,2.29H74c2.53,0,4.58-1,4.58-2.29v-6.4C78.59,64.32,76.54,65.35,74,65.35Z"/><path class="cls-1" d="M22,30.43H74c2.53,0,4.58-2.62,4.58-3.89s-2-2.29-4.58-2.29h-9.9a1.18,1.18,0,0,0-1.18,1.18,1.17,1.17,0,0,1-1.17,1.17H34.24a1.17,1.17,0,0,1-1.17-1.17,1.18,1.18,0,0,0-1.18-1.18H22c-2.53,0-4.58,1-4.58,2.29S19.46,30.43,22,30.43Z"/><path class="cls-2" d="M74,30.43H22c-2.53,0-4.58-2.62-4.58-3.89V63.06c0,1.26,2.05,2.29,4.58,2.29H74c2.53,0,4.58-1,4.58-2.29V26.54C78.59,27.81,76.54,30.43,74,30.43Z"/><rect class="cls-1" x="41.12" y="46.64" width="13.77" height="4.66"/><rect class="cls-3" width="96" height="96"/></g></g></svg>