<svg xmlns="http://www.w3.org/2000/svg" width="121" height="397" viewBox="0 0 121 397">
  <g id="logo-wowsolar400" transform="translate(-2092.506 753.999) rotate(-90)">
    <g id="Group_135" data-name="Group 135" transform="translate(357 2092.506)">
      <text id="_400" data-name="400" transform="translate(371.008 102.536)" fill="#b5c4ca" font-size="12" font-family="Kallisto-Bold, Kallisto" font-weight="700" letter-spacing="0.05em"><tspan x="-29.916" y="0">400</tspan></text>
      <g id="Group_40" data-name="Group 40" transform="translate(0 0)">
        <path id="Path_42" data-name="Path 42" d="M214.068,364.829l-15.262,55.752h7.55L223.2,359.033A12.543,12.543,0,0,1,214.068,364.829Z" transform="translate(-130.742 -338.253)" fill="#b5c4ca"/>
        <path id="Path_43" data-name="Path 43" d="M220.258,447.188a38.59,38.59,0,0,1,0-77.175A37.909,37.909,0,0,1,248.6,382.784l6.707-24.492c-.06.068-10.2,11.923-19.335,8.625l.129.092c-.414-.156-.827-.316-1.248-.46l.123.007c-9.492-3.208-10.679-19.141-10.679-19.141l-1.426-.069s-2.175,15.6-11.649,17.818l.06,0c-.419.092-.822.217-1.236.322l.146-.084c-9.7,2.484-19.231-10.272-19.231-10.272l-1.238.72s6.523,14.313-.261,21.349l.016-.009c-.29.3-.549.622-.833.926l.079-.151c-6.833,7.388-21.678,1.858-21.678,1.858l-.655,1.28s13.151,8.479,11.211,18.1l.026-.05c-.085.395-.155.791-.229,1.191l-.009-.094c-1.792,9.946-17.241,13.4-17.241,13.4l.135,1.436s15.6-.048,19.122,9.107l-.012-.164c.148.405.28.82.44,1.22l-.044-.059c3.817,9.344-7.332,20.684-7.332,20.684l.882,1.134s13.1-8.559,20.963-2.779l-.114-.151c.361.276.718.558,1.09.823l-.12-.043c8.214,5.777,4.907,21.4,4.907,21.4l1.349.473s6.439-14.352,16.148-13.782l-.164-.059c.474.034.951.052,1.428.073l-.208.048c10,.375,15.586,15.327,15.586,15.327l1.389-.34s-2.268-15.588,6.2-20.41l-.012,0c.357-.2.69-.432,1.042-.64l-.107.112c8.617-5.144,21.317,4.385,21.317,4.385L249.777,433.1A37.993,37.993,0,0,1,220.258,447.188Z" transform="translate(-160.149 -347.346)" fill="#b5c4ca"/>
        <g id="Group_39" data-name="Group 39" transform="translate(33.013 42.829)">
          <g id="Group_38" data-name="Group 38" transform="translate(59.562)">
            <path id="Path_44" data-name="Path 44" d="M232.023,371.434c10.232,0,19.349,7.548,19.349,19.807,0,12.2-9.117,19.754-19.349,19.754-10.179,0-19.3-7.55-19.3-19.754C212.727,378.982,221.844,371.434,232.023,371.434Zm0,32.387c5.831,0,11.769-4.068,11.769-12.633s-5.937-12.635-11.769-12.635c-5.779,0-11.716,4.07-11.716,12.635S226.244,403.821,232.023,403.821Z" transform="translate(-212.727 -371.434)" fill="#b5c4ca"/>
            <path id="Path_45" data-name="Path 45" d="M283.2,371.885h7.474l-10.39,37.956h-7.527l-8.589-27.035-8.587,27.035h-7.635L237.5,371.885h7.74l6.891,26.125,8.323-26.125h7.58l8.376,26.233Z" transform="translate(-193.879 -371.083)" fill="#b5c4ca"/>
            <path id="Path_46" data-name="Path 46" d="M293.186,382.278c-.584-3.213-3.076-6.746-8.483-6.8-4.347,0-7.793,2.891-7.793,6.744,0,3.053,1.961,5.247,5.407,6l5.515,1.232c6.043,1.337,9.647,5.138,9.647,10.49,0,5.836-4.93,10.976-12.776,10.976-8.693,0-13.093-5.729-13.783-11.3l4.189-1.339a9.14,9.14,0,0,0,9.594,8.565c5.407,0,8.323-2.889,8.323-6.531,0-3.1-2.12-5.514-6.1-6.424l-5.515-1.23c-5.194-1.179-8.959-4.605-8.959-10.172,0-5.942,5.407-11.027,12.193-11.027,8.112,0,11.557,4.979,12.512,9.368Z" transform="translate(-168.458 -371.411)" fill="#b5c4ca"/>
            <path id="Path_47" data-name="Path 47" d="M309.126,371.464c9.383,0,18.607,7.013,18.607,19.7s-9.225,19.754-18.607,19.754c-9.332,0-18.607-7.066-18.607-19.754S299.795,371.464,309.126,371.464Zm0,35.331c7.314,0,14.155-5.3,14.155-15.631,0-10.279-6.84-15.579-14.155-15.579-7.263,0-14.154,5.3-14.154,15.579C294.972,401.5,301.863,406.8,309.126,406.8Z" transform="translate(-153.549 -371.411)" fill="#b5c4ca"/>
            <path id="Path_48" data-name="Path 48" d="M317.613,409.841V371.885h4.453v33.834H340.3v4.121Z" transform="translate(-132.938 -371.083)" fill="#b5c4ca"/>
            <path id="Path_49" data-name="Path 49" d="M359.449,398.76H342.22l-4.189,11.081h-4.824l15.056-37.956h5.2l15.109,37.956h-4.824Zm-15.639-4.121h14.049l-7.052-18.148Z" transform="translate(-121.075 -371.083)" fill="#b5c4ca"/>
            <path id="Path_50" data-name="Path 50" d="M369.289,393.941h-6.52v15.9h-4.453V371.885h13.677c6.944,0,11.344,4.927,11.344,11.083a10.389,10.389,0,0,1-9.172,10.654l9.119,16.219h-5.2Zm2.014-4.015c4.558,0,7.582-2.731,7.582-6.959,0-4.283-3.023-7.066-7.582-7.066h-8.534v14.025Z" transform="translate(-101.909 -371.083)" fill="#b5c4ca"/>
            <path id="Path_51" data-name="Path 51" d="M379.131,373.657v7.514h-1.789v-7.514h-2.884v-1.7h7.557v1.7Z" transform="translate(-89.694 -371.029)" fill="#b5c4ca"/>
            <path id="Path_52" data-name="Path 52" d="M388.273,381.171V374.71l-2.627,6.461h-1.479l-2.627-6.408v6.408h-1.7v-9.217h2.344l2.742,6.657,2.678-6.657h2.419v9.217Z" transform="translate(-85.599 -371.029)" fill="#b5c4ca"/>
          </g>
          <path id="Path_53" data-name="Path 53" d="M221.5,410.258,211.109,372.3H201.7l-7.627,27.861L186.449,372.3H178.9l10.391,37.955h9.573l7.543-27.554,7.543,27.554Z" transform="translate(-178.899 -370.759)" fill="#b5c4ca"/>
        </g>
      </g>
    </g>
  </g>
</svg>
