<svg id="logo-landscape" xmlns="http://www.w3.org/2000/svg" width="163.326" height="50" viewBox="0 0 163.326 50">
  <g id="Group_4" data-name="Group 4" transform="translate(16.193 41.616)">
    <path id="Path_7" data-name="Path 7" d="M370.081,306.23v-8.066h.956v8.066Z" transform="translate(-370.081 -298.005)" fill="#fff"/>
    <path id="Path_8" data-name="Path 8" d="M392.427,306.23l-4.573-6.826v6.826H386.9v-8.066h1.252l4.322,6.462v-6.462h.956v8.066Z" transform="translate(-376.881 -298.005)" fill="#fff"/>
    <path id="Path_9" data-name="Path 9" d="M418.609,306.23l-4.574-6.826v6.826h-.956v-8.066h1.252l4.322,6.462v-6.462h.956v8.066Z" transform="translate(-387.469 -298.005)" fill="#fff"/>
    <path id="Path_10" data-name="Path 10" d="M442.337,297.9a4.2,4.2,0,1,1-3.994,4.187A3.973,3.973,0,0,1,442.337,297.9Zm0,7.508a3.329,3.329,0,1,0-3.038-3.321A3.037,3.037,0,0,0,442.337,305.4Z" transform="translate(-397.685 -297.897)" fill="#fff"/>
    <path id="Path_11" data-name="Path 11" d="M470.227,298.164h1l-3.072,8.066H467.2l-3.061-8.066h1.013l2.525,6.872Z" transform="translate(-408.117 -298.005)" fill="#fff"/>
    <path id="Path_12" data-name="Path 12" d="M492.9,303.875h-3.7l-.9,2.355h-1.035l3.23-8.066h1.114l3.243,8.066h-1.035ZM489.541,303h3.016l-1.513-3.857Z" transform="translate(-417.469 -298.005)" fill="#fff"/>
    <path id="Path_13" data-name="Path 13" d="M514.48,299.04v7.19h-.945v-7.19h-2.764v-.876h6.472v.876Z" transform="translate(-426.974 -298.005)" fill="#fff"/>
    <path id="Path_14" data-name="Path 14" d="M535.346,306.23v-8.066h.956v8.066Z" transform="translate(-436.911 -298.005)" fill="#fff"/>
    <path id="Path_15" data-name="Path 15" d="M555.239,297.9a4.2,4.2,0,1,1-3.993,4.187A3.973,3.973,0,0,1,555.239,297.9Zm0,7.508a3.329,3.329,0,1,0-3.037-3.321A3.037,3.037,0,0,0,555.239,305.4Z" transform="translate(-443.34 -297.897)" fill="#fff"/>
    <path id="Path_16" data-name="Path 16" d="M584.485,306.23l-4.574-6.826v6.826h-.956v-8.066h1.252l4.323,6.462v-6.462h.956v8.066Z" transform="translate(-454.545 -298.005)" fill="#fff"/>
  </g>
  <g id="Group_5" data-name="Group 5">
    <path id="Path_17" data-name="Path 17" d="M541.818,259.041c-4.659,0-7.794-2.569-8.229-6.706h19.9a14.95,14.95,0,0,0-1.045-6.138c-1.654-4.007-5.792-6.4-10.928-6.4-7.1,0-12.018,4.659-12.018,11.409,0,6.7,4.79,11.191,11.931,11.191,5.7,0,9.535-2.4,11.669-7.273h-4.573C547.435,257.734,545.171,259.041,541.818,259.041ZM541.47,243.1a7.451,7.451,0,0,1,7.706,5.923H533.719A7.5,7.5,0,0,1,541.47,243.1Z" transform="translate(-418.352 -232.786)" fill="#fff"/>
    <path id="Path_18" data-name="Path 18" d="M374.85,228.027h-5.42l6.866,14.521h4.674l-3.055,3.425,5.246,11.1h5.42Z" transform="translate(-353.625 -228.027)" fill="#fff"/>
    <path id="Path_19" data-name="Path 19" d="M364.116,228.027h-9.667l-11.555,24.862H352L346.558,264.6l17.558-19.681h-7.852Z" transform="translate(-342.894 -228.027)" fill="#fc4803"/>
    <path id="Path_20" data-name="Path 20" d="M494.182,239.822c-6.638,0-12.018,5.051-12.018,11.283v18.266H486V259.35a12.39,12.39,0,0,0,8.186,3.039c6.637,0,12.017-5.052,12.017-11.283S500.819,239.822,494.182,239.822Zm-.261,19.012a7.731,7.731,0,1,1,7.925-7.728A7.828,7.828,0,0,1,493.921,258.834Z" transform="translate(-399.212 -232.797)" fill="#fff"/>
    <path id="Path_21" data-name="Path 21" d="M596.956,228.076V238.1a12.393,12.393,0,0,0-8.186-3.038c-6.637,0-12.017,5.051-12.017,11.283s5.38,11.283,12.017,11.283,12.018-5.052,12.018-11.283V228.076Zm-7.925,25.995a7.731,7.731,0,1,1,7.925-7.728A7.828,7.828,0,0,1,589.031,254.071Z" transform="translate(-437.462 -228.047)" fill="#fff"/>
    <path id="Path_22" data-name="Path 22" d="M435.748,239.676a10.964,10.964,0,0,0-8.149,3.432,10.966,10.966,0,0,0-8.149-3.432c-5.677,0-10.279,3.873-10.279,8.651v13.381h4.26V248.327c0-2.8,2.694-5.065,6.018-5.065s6.018,2.268,6.018,5.065v13.381h4.26V248.327h0c0-2.8,2.693-5.065,6.018-5.065s6.018,2.268,6.018,5.065v13.381h4.259V248.327C446.025,243.549,441.424,239.676,435.748,239.676Z" transform="translate(-369.695 -232.738)" fill="#fff"/>
  </g>
</svg>
