<svg xmlns="http://www.w3.org/2000/svg" width="131.812" height="29.518" viewBox="0 0 131.812 29.518">
  <g id="logo" transform="translate(5107 174)">
    <path id="Path_1" data-name="Path 1" d="M539.44,266.6c-3.76,0-6.29-2.073-6.641-5.412h16.059a12.064,12.064,0,0,0-.844-4.954c-1.335-3.234-4.674-5.166-8.82-5.166-5.728,0-9.7,3.76-9.7,9.207,0,5.411,3.866,9.031,9.629,9.031,4.6,0,7.695-1.933,9.417-5.869h-3.69C543.974,265.544,542.146,266.6,539.44,266.6Zm-.281-12.862a6.013,6.013,0,0,1,6.219,4.78H532.9A6.052,6.052,0,0,1,539.159,253.736Z" transform="translate(-5546.797 -419.409)" fill="#1c212b"/>
    <path id="Path_2" data-name="Path 2" d="M373.8,239.3H369.43l5.541,11.719h3.772l-2.466,2.764,4.234,8.955h4.374Z" transform="translate(-5463.674 -413.297)" fill="#1c212b"/>
    <path id="Path_3" data-name="Path 3" d="M360.021,239.3h-7.8l-9.326,20.065h7.35l-4.393,9.453,14.17-15.884h-6.337Z" transform="translate(-5449.895 -413.297)" fill="#fc4803"/>
    <path id="Path_4" data-name="Path 4" d="M491.863,251.092c-5.357,0-9.7,4.077-9.7,9.106V274.94h3.093v-8.088a10,10,0,0,0,6.606,2.453c5.356,0,9.7-4.077,9.7-9.106S497.219,251.092,491.863,251.092Zm-.211,15.343a6.239,6.239,0,1,1,6.4-6.237A6.318,6.318,0,0,1,491.652,266.435Z" transform="translate(-5522.218 -419.422)" fill="#1c212b"/>
    <path id="Path_5" data-name="Path 5" d="M593.058,239.347v8.087a10,10,0,0,0-6.606-2.452c-5.356,0-9.7,4.077-9.7,9.106s4.342,9.106,9.7,9.106,9.7-4.077,9.7-9.106V239.347Zm-6.4,20.979a6.239,6.239,0,1,1,6.4-6.237A6.318,6.318,0,0,1,586.662,260.326Z" transform="translate(-5571.339 -413.323)" fill="#1c212b"/>
    <path id="Path_6" data-name="Path 6" d="M430.62,250.946a8.849,8.849,0,0,0-6.577,2.77,8.85,8.85,0,0,0-6.576-2.77c-4.582,0-8.3,3.125-8.3,6.982v10.8h3.438v-10.8c0-2.257,2.174-4.088,4.857-4.088s4.857,1.831,4.857,4.088v10.8h3.438v-10.8h0c0-2.257,2.173-4.088,4.857-4.088s4.857,1.831,4.857,4.088v10.8h3.437v-10.8C438.914,254.071,435.2,250.946,430.62,250.946Z" transform="translate(-5484.313 -419.346)" fill="#1c212b"/>
  </g>
</svg>
