<svg xmlns="http://www.w3.org/2000/svg" width="196" height="60" viewBox="0 0 196 60">
  <g id="logo-full_black" transform="translate(-292.243 1079.688)">
    <g id="Group_1030" data-name="Group 1030" transform="translate(311.67 -1029.746)">
      <path id="Path_567" data-name="Path 567" d="M319.43-999.874v-9.677h1.147v9.677Z" transform="translate(-319.43 1009.742)" fill="#1c212b"/>
      <path id="Path_568" data-name="Path 568" d="M342.88-999.874l-5.486-8.189v8.189h-1.147v-9.677h1.5l5.186,7.752v-7.752h1.147v9.677Z" transform="translate(-324.23 1009.742)" fill="#1c212b"/>
      <path id="Path_569" data-name="Path 569" d="M369.062-999.874l-5.487-8.189v8.189h-1.147v-9.677h1.5l5.186,7.752v-7.752h1.147v9.677Z" transform="translate(-331.691 1009.742)" fill="#1c212b"/>
      <path id="Path_570" data-name="Path 570" d="M392.483-1009.818a4.766,4.766,0,0,1,4.79,5.023,4.778,4.778,0,0,1-4.79,5.035,4.786,4.786,0,0,1-4.791-5.035A4.774,4.774,0,0,1,392.483-1009.818Zm0,9.007a3.644,3.644,0,0,0,3.644-3.984,3.639,3.639,0,0,0-3.644-3.972,3.647,3.647,0,0,0-3.644,3.972A3.651,3.651,0,0,0,392.483-1000.811Z" transform="translate(-338.895 1009.818)" fill="#1c212b"/>
      <path id="Path_571" data-name="Path 571" d="M420.792-1009.551h1.2l-3.686,9.677h-1.145l-3.672-9.677h1.215l3.029,8.244Z" transform="translate(-346.252 1009.742)" fill="#1c212b"/>
      <path id="Path_572" data-name="Path 572" d="M443.371-1002.7h-4.435l-1.078,2.825h-1.242l3.875-9.677h1.337l3.891,9.677h-1.242Zm-4.027-1.05h3.618l-1.816-4.628Z" transform="translate(-352.846 1009.742)" fill="#1c212b"/>
      <path id="Path_573" data-name="Path 573" d="M464.57-1008.5v8.625h-1.133v-8.625h-3.316v-1.051h7.764v1.051Z" transform="translate(-359.549 1009.742)" fill="#1c212b"/>
      <path id="Path_574" data-name="Path 574" d="M484.695-999.874v-9.677h1.147v9.677Z" transform="translate(-366.558 1009.742)" fill="#1c212b"/>
      <path id="Path_575" data-name="Path 575" d="M505.385-1009.818a4.766,4.766,0,0,1,4.791,5.023,4.778,4.778,0,0,1-4.791,5.035,4.785,4.785,0,0,1-4.79-5.035A4.774,4.774,0,0,1,505.385-1009.818Zm0,9.007a3.644,3.644,0,0,0,3.644-3.984,3.64,3.64,0,0,0-3.644-3.972,3.647,3.647,0,0,0-3.644,3.972A3.651,3.651,0,0,0,505.385-1000.811Z" transform="translate(-371.082 1009.818)" fill="#1c212b"/>
      <path id="Path_576" data-name="Path 576" d="M534.938-999.874l-5.487-8.189v8.189H528.3v-9.677h1.5l5.186,7.752v-7.752h1.147v9.677Z" transform="translate(-378.992 1009.742)" fill="#1c212b"/>
    </g>
    <g id="Group_1031" data-name="Group 1031" transform="translate(292.243 -1079.688)">
      <path id="Path_577" data-name="Path 577" d="M493.627-1044.818c-5.589,0-9.35-3.083-9.872-8.049h23.872a17.958,17.958,0,0,0-1.254-7.369c-1.984-4.809-6.948-7.684-13.111-7.684-8.515,0-14.418,5.592-14.418,13.695,0,8.048,5.746,13.433,14.313,13.433,6.842,0,11.439-2.875,14-8.73h-5.486C500.366-1046.386,497.65-1044.818,493.627-1044.818Zm-.417-19.13a8.939,8.939,0,0,1,9.245,7.11H483.911A9,9,0,0,1,493.21-1063.948Z" transform="translate(-345.459 1076.329)" fill="#2a303c"/>
      <path id="Path_578" data-name="Path 578" d="M325.281-1079.688h-6.5l8.237,17.42h5.608l-3.665,4.109,6.294,13.312h6.5Z" transform="translate(-299.817 1079.688)" fill="#2a303c"/>
      <path id="Path_579" data-name="Path 579" d="M317.7-1079.688h-11.6l-13.863,29.837h10.926l-6.531,14.057,21.064-23.62h-9.42Z" transform="translate(-292.243 1079.688)" fill="#fc4803"/>
      <path id="Path_580" data-name="Path 580" d="M445.931-1067.893c-7.963,0-14.418,6.06-14.418,13.536v21.913h4.6v-12.022a14.865,14.865,0,0,0,9.82,3.646c7.962,0,14.417-6.061,14.417-13.537S453.893-1067.893,445.931-1067.893Zm-.314,22.808a9.391,9.391,0,0,1-9.507-9.271,9.391,9.391,0,0,1,9.507-9.271,9.391,9.391,0,0,1,9.507,9.271A9.391,9.391,0,0,1,445.617-1045.085Z" transform="translate(-331.961 1076.337)" fill="#2a303c"/>
      <path id="Path_581" data-name="Path 581" d="M550.339-1079.639v12.022a14.87,14.87,0,0,0-9.82-3.645c-7.962,0-14.417,6.06-14.417,13.537s6.455,13.536,14.417,13.536,14.418-6.06,14.418-13.536v-21.914Zm-9.507,31.186a9.392,9.392,0,0,1-9.507-9.271,9.392,9.392,0,0,1,9.507-9.272,9.392,9.392,0,0,1,9.507,9.272A9.392,9.392,0,0,1,540.832-1048.453Z" transform="translate(-358.937 1079.674)" fill="#2a303c"/>
      <path id="Path_582" data-name="Path 582" d="M390.4-1068.039a13.141,13.141,0,0,0-9.777,4.125,13.143,13.143,0,0,0-9.776-4.125c-6.81,0-12.331,4.655-12.331,10.4v16.084h5.111v-16.084c0-3.363,3.232-6.089,7.22-6.089s7.22,2.726,7.22,6.089v16.084h5.111v-16.084h0c0-3.363,3.231-6.089,7.22-6.089s7.22,2.726,7.22,6.089v16.084h5.11v-16.084C402.733-1063.384,397.213-1068.039,390.4-1068.039Z" transform="translate(-311.143 1076.346)" fill="#2a303c"/>
    </g>
  </g>
</svg>
