<svg id="team-map" xmlns="http://www.w3.org/2000/svg" xmlns:xlink="http://www.w3.org/1999/xlink" width="674" height="560" viewBox="0 0 674 560">
  <defs>
    <clipPath id="clip-path">
      <rect id="Rectangle_684" data-name="Rectangle 684" width="674" height="560" fill="none"/>
    </clipPath>
  </defs>
  <g id="Group_1086" data-name="Group 1086" clip-path="url(#clip-path)">
    <path id="Path_687" data-name="Path 687" d="M196.159,91a6.5,6.5,0,1,1-6.5-6.5,6.5,6.5,0,0,1,6.5,6.5" transform="translate(-9.637 -12.501)" fill="#7c959f"/>
    <path id="Path_688" data-name="Path 688" d="M214.636,91a6.5,6.5,0,1,1-6.5-6.5,6.5,6.5,0,0,1,6.5,6.5" transform="translate(-8.549 -12.501)" fill="#7c959f"/>
    <path id="Path_689" data-name="Path 689" d="M270.067,91a6.5,6.5,0,1,1-6.5-6.5,6.5,6.5,0,0,1,6.5,6.5" transform="translate(-5.284 -12.501)" fill="#7c959f"/>
    <path id="Path_690" data-name="Path 690" d="M288.544,91a6.5,6.5,0,1,1-6.5-6.5,6.5,6.5,0,0,1,6.5,6.5" transform="translate(-4.196 -12.501)" fill="#7c959f"/>
    <path id="Path_691" data-name="Path 691" d="M177.682,108.226a6.5,6.5,0,1,1-6.5-6.5,6.5,6.5,0,0,1,6.5,6.5" transform="translate(-10.725 -11.487)" fill="#7c959f"/>
    <path id="Path_692" data-name="Path 692" d="M196.159,108.226a6.5,6.5,0,1,1-6.5-6.5,6.5,6.5,0,0,1,6.5,6.5" transform="translate(-9.637 -11.487)" fill="#7c959f"/>
    <path id="Path_693" data-name="Path 693" d="M214.636,108.226a6.5,6.5,0,1,1-6.5-6.5,6.5,6.5,0,0,1,6.5,6.5" transform="translate(-8.549 -11.487)" fill="#7c959f"/>
    <path id="Path_694" data-name="Path 694" d="M233.113,108.226a6.5,6.5,0,1,1-6.5-6.5,6.5,6.5,0,0,1,6.5,6.5" transform="translate(-7.46 -11.487)" fill="#7c959f"/>
    <path id="Path_695" data-name="Path 695" d="M251.59,108.226a6.5,6.5,0,1,1-6.5-6.5,6.5,6.5,0,0,1,6.5,6.5" transform="translate(-6.372 -11.487)" fill="#7c959f"/>
    <path id="Path_696" data-name="Path 696" d="M270.067,108.226a6.5,6.5,0,1,1-6.5-6.5,6.5,6.5,0,0,1,6.5,6.5" transform="translate(-5.284 -11.487)" fill="#7c959f"/>
    <path id="Path_697" data-name="Path 697" d="M288.544,108.226a6.5,6.5,0,1,1-6.5-6.5,6.5,6.5,0,0,1,6.5,6.5" transform="translate(-4.196 -11.487)" fill="#7c959f"/>
    <path id="Path_698" data-name="Path 698" d="M307.021,108.226a6.5,6.5,0,1,1-6.5-6.5,6.5,6.5,0,0,1,6.5,6.5" transform="translate(-3.107 -11.487)" fill="#7c959f"/>
    <path id="Path_699" data-name="Path 699" d="M159.205,125.451a6.5,6.5,0,1,1-6.5-6.5,6.5,6.5,0,0,1,6.5,6.5" transform="translate(-11.813 -10.472)" fill="#7c959f"/>
    <path id="Path_700" data-name="Path 700" d="M177.682,125.451a6.5,6.5,0,1,1-6.5-6.5,6.5,6.5,0,0,1,6.5,6.5" transform="translate(-10.725 -10.472)" fill="#7c959f"/>
    <path id="Path_701" data-name="Path 701" d="M196.159,125.451a6.5,6.5,0,1,1-6.5-6.5,6.5,6.5,0,0,1,6.5,6.5" transform="translate(-9.637 -10.472)" fill="#7c959f"/>
    <path id="Path_702" data-name="Path 702" d="M214.636,125.451a6.5,6.5,0,1,1-6.5-6.5,6.5,6.5,0,0,1,6.5,6.5" transform="translate(-8.549 -10.472)" fill="#7c959f"/>
    <path id="Path_703" data-name="Path 703" d="M233.113,125.451a6.5,6.5,0,1,1-6.5-6.5,6.5,6.5,0,0,1,6.5,6.5" transform="translate(-7.46 -10.472)" fill="#7c959f"/>
    <path id="Path_704" data-name="Path 704" d="M251.59,125.451a6.5,6.5,0,1,1-6.5-6.5,6.5,6.5,0,0,1,6.5,6.5" transform="translate(-6.372 -10.472)" fill="#7c959f"/>
    <path id="Path_705" data-name="Path 705" d="M270.067,125.451a6.5,6.5,0,1,1-6.5-6.5,6.5,6.5,0,0,1,6.5,6.5" transform="translate(-5.284 -10.472)" fill="#7c959f"/>
    <path id="Path_706" data-name="Path 706" d="M288.544,125.451a6.5,6.5,0,1,1-6.5-6.5,6.5,6.5,0,0,1,6.5,6.5" transform="translate(-4.196 -10.472)" fill="#7c959f"/>
    <path id="Path_707" data-name="Path 707" d="M307.021,125.451a6.5,6.5,0,1,1-6.5-6.5,6.5,6.5,0,0,1,6.5,6.5" transform="translate(-3.107 -10.472)" fill="#7c959f"/>
    <path id="Path_708" data-name="Path 708" d="M362.452,125.451a6.5,6.5,0,1,1-6.5-6.5,6.5,6.5,0,0,1,6.5,6.5" transform="translate(0.157 -10.472)" fill="#7c959f"/>
    <path id="Path_709" data-name="Path 709" d="M380.929,125.451a6.5,6.5,0,1,1-6.5-6.5,6.5,6.5,0,0,1,6.5,6.5" transform="translate(1.246 -10.472)" fill="#7c959f"/>
    <path id="Path_710" data-name="Path 710" d="M510.268,125.451a6.5,6.5,0,1,1-6.5-6.5,6.5,6.5,0,0,1,6.5,6.5" transform="translate(8.863 -10.472)" fill="#7c959f"/>
    <path id="Path_711" data-name="Path 711" d="M177.682,142.676a6.5,6.5,0,1,1-6.5-6.5,6.5,6.5,0,0,1,6.5,6.5" transform="translate(-10.725 -9.458)" fill="#7c959f"/>
    <path id="Path_712" data-name="Path 712" d="M196.159,142.676a6.5,6.5,0,1,1-6.5-6.5,6.5,6.5,0,0,1,6.5,6.5" transform="translate(-9.637 -9.458)" fill="#7c959f"/>
    <path id="Path_713" data-name="Path 713" d="M214.636,142.676a6.5,6.5,0,1,1-6.5-6.5,6.5,6.5,0,0,1,6.5,6.5" transform="translate(-8.549 -9.458)" fill="#7c959f"/>
    <path id="Path_714" data-name="Path 714" d="M233.113,142.676a6.5,6.5,0,1,1-6.5-6.5,6.5,6.5,0,0,1,6.5,6.5" transform="translate(-7.46 -9.458)" fill="#7c959f"/>
    <path id="Path_715" data-name="Path 715" d="M251.59,142.676a6.5,6.5,0,1,1-6.5-6.5,6.5,6.5,0,0,1,6.5,6.5" transform="translate(-6.372 -9.458)" fill="#7c959f"/>
    <path id="Path_716" data-name="Path 716" d="M270.067,142.676a6.5,6.5,0,1,1-6.5-6.5,6.5,6.5,0,0,1,6.5,6.5" transform="translate(-5.284 -9.458)" fill="#7c959f"/>
    <path id="Path_717" data-name="Path 717" d="M288.544,142.676a6.5,6.5,0,1,1-6.5-6.5,6.5,6.5,0,0,1,6.5,6.5" transform="translate(-4.196 -9.458)" fill="#7c959f"/>
    <path id="Path_718" data-name="Path 718" d="M362.452,142.676a6.5,6.5,0,1,1-6.5-6.5,6.5,6.5,0,0,1,6.5,6.5" transform="translate(0.157 -9.458)" fill="#7c959f"/>
    <path id="Path_719" data-name="Path 719" d="M510.268,142.676a6.5,6.5,0,1,1-6.5-6.5,6.5,6.5,0,0,1,6.5,6.5" transform="translate(8.863 -9.458)" fill="#7c959f"/>
    <path id="Path_720" data-name="Path 720" d="M140.728,159.9a6.5,6.5,0,1,1-6.5-6.5,6.5,6.5,0,0,1,6.5,6.5" transform="translate(-12.902 -8.443)" fill="#7c959f"/>
    <path id="Path_721" data-name="Path 721" d="M177.682,159.9a6.5,6.5,0,1,1-6.5-6.5,6.5,6.5,0,0,1,6.5,6.5" transform="translate(-10.725 -8.443)" fill="#7c959f"/>
    <path id="Path_722" data-name="Path 722" d="M196.159,159.9a6.5,6.5,0,1,1-6.5-6.5,6.5,6.5,0,0,1,6.5,6.5" transform="translate(-9.637 -8.443)" fill="#7c959f"/>
    <path id="Path_723" data-name="Path 723" d="M233.113,159.9a6.5,6.5,0,1,1-6.5-6.5,6.5,6.5,0,0,1,6.5,6.5" transform="translate(-7.46 -8.443)" fill="#7c959f"/>
    <path id="Path_724" data-name="Path 724" d="M251.59,159.9a6.5,6.5,0,1,1-6.5-6.5,6.5,6.5,0,0,1,6.5,6.5" transform="translate(-6.372 -8.443)" fill="#7c959f"/>
    <path id="Path_725" data-name="Path 725" d="M270.067,159.9a6.5,6.5,0,1,1-6.5-6.5,6.5,6.5,0,0,1,6.5,6.5" transform="translate(-5.284 -8.443)" fill="#7c959f"/>
    <path id="Path_726" data-name="Path 726" d="M288.544,159.9a6.5,6.5,0,1,1-6.5-6.5,6.5,6.5,0,0,1,6.5,6.5" transform="translate(-4.196 -8.443)" fill="#7c959f"/>
    <path id="Path_727" data-name="Path 727" d="M436.36,159.9a6.5,6.5,0,1,1-6.5-6.5,6.5,6.5,0,0,1,6.5,6.5" transform="translate(4.51 -8.443)" fill="#7c959f"/>
    <path id="Path_728" data-name="Path 728" d="M454.837,159.9a6.5,6.5,0,1,1-6.5-6.5,6.5,6.5,0,0,1,6.5,6.5" transform="translate(5.599 -8.443)" fill="#7c959f"/>
    <path id="Path_729" data-name="Path 729" d="M510.268,159.9a6.5,6.5,0,1,1-6.5-6.5,6.5,6.5,0,0,1,6.5,6.5" transform="translate(8.863 -8.443)" fill="#7c959f"/>
    <path id="Path_730" data-name="Path 730" d="M528.745,159.9a6.5,6.5,0,1,1-6.5-6.5,6.5,6.5,0,0,1,6.5,6.5" transform="translate(9.952 -8.443)" fill="#7c959f"/>
    <path id="Path_731" data-name="Path 731" d="M584.176,159.9a6.5,6.5,0,1,1-6.5-6.5,6.5,6.5,0,0,1,6.5,6.5" transform="translate(13.216 -8.443)" fill="#7c959f"/>
    <path id="Path_732" data-name="Path 732" d="M122.251,177.126a6.5,6.5,0,1,1-6.5-6.5,6.5,6.5,0,0,1,6.5,6.5" transform="translate(-13.99 -7.429)" fill="#7c959f"/>
    <path id="Path_733" data-name="Path 733" d="M140.728,177.126a6.5,6.5,0,1,1-6.5-6.5,6.5,6.5,0,0,1,6.5,6.5" transform="translate(-12.902 -7.429)" fill="#7c959f"/>
    <path id="Path_734" data-name="Path 734" d="M159.205,177.126a6.5,6.5,0,1,1-6.5-6.5,6.5,6.5,0,0,1,6.5,6.5" transform="translate(-11.813 -7.429)" fill="#7c959f"/>
    <path id="Path_735" data-name="Path 735" d="M177.682,177.126a6.5,6.5,0,1,1-6.5-6.5,6.5,6.5,0,0,1,6.5,6.5" transform="translate(-10.725 -7.429)" fill="#7c959f"/>
    <path id="Path_736" data-name="Path 736" d="M196.159,177.126a6.5,6.5,0,1,1-6.5-6.5,6.5,6.5,0,0,1,6.5,6.5" transform="translate(-9.637 -7.429)" fill="#7c959f"/>
    <path id="Path_737" data-name="Path 737" d="M251.59,177.126a6.5,6.5,0,1,1-6.5-6.5,6.5,6.5,0,0,1,6.5,6.5" transform="translate(-6.372 -7.429)" fill="#7c959f"/>
    <path id="Path_738" data-name="Path 738" d="M270.067,177.126a6.5,6.5,0,1,1-6.5-6.5,6.5,6.5,0,0,1,6.5,6.5" transform="translate(-5.284 -7.429)" fill="#7c959f"/>
    <path id="Path_739" data-name="Path 739" d="M288.544,177.126a6.5,6.5,0,1,1-6.5-6.5,6.5,6.5,0,0,1,6.5,6.5" transform="translate(-4.196 -7.429)" fill="#7c959f"/>
    <path id="Path_740" data-name="Path 740" d="M436.36,177.126a6.5,6.5,0,1,1-6.5-6.5,6.5,6.5,0,0,1,6.5,6.5" transform="translate(4.51 -7.429)" fill="#7c959f"/>
    <path id="Path_741" data-name="Path 741" d="M454.837,177.126a6.5,6.5,0,1,1-6.5-6.5,6.5,6.5,0,0,1,6.5,6.5" transform="translate(5.599 -7.429)" fill="#7c959f"/>
    <path id="Path_742" data-name="Path 742" d="M473.314,177.126a6.5,6.5,0,1,1-6.5-6.5,6.5,6.5,0,0,1,6.5,6.5" transform="translate(6.687 -7.429)" fill="#7c959f"/>
    <path id="Path_743" data-name="Path 743" d="M491.791,177.126a6.5,6.5,0,1,1-6.5-6.5,6.5,6.5,0,0,1,6.5,6.5" transform="translate(7.775 -7.429)" fill="#7c959f"/>
    <path id="Path_744" data-name="Path 744" d="M510.268,177.126a6.5,6.5,0,1,1-6.5-6.5,6.5,6.5,0,0,1,6.5,6.5" transform="translate(8.863 -7.429)" fill="#7c959f"/>
    <path id="Path_745" data-name="Path 745" d="M528.745,177.126a6.5,6.5,0,1,1-6.5-6.5,6.5,6.5,0,0,1,6.5,6.5" transform="translate(9.952 -7.429)" fill="#7c959f"/>
    <path id="Path_746" data-name="Path 746" d="M547.222,177.126a6.5,6.5,0,1,1-6.5-6.5,6.5,6.5,0,0,1,6.5,6.5" transform="translate(11.04 -7.429)" fill="#7c959f"/>
    <path id="Path_747" data-name="Path 747" d="M584.176,177.126a6.5,6.5,0,1,1-6.5-6.5,6.5,6.5,0,0,1,6.5,6.5" transform="translate(13.216 -7.429)" fill="#7c959f"/>
    <path id="Path_748" data-name="Path 748" d="M66.82,194.349a6.5,6.5,0,1,1-6.5-6.5,6.5,6.5,0,0,1,6.5,6.5" transform="translate(-17.255 -6.414)" fill="#7c959f"/>
    <path id="Path_749" data-name="Path 749" d="M103.774,194.349a6.5,6.5,0,1,1-6.5-6.5,6.5,6.5,0,0,1,6.5,6.5" transform="translate(-15.078 -6.414)" fill="#7c959f"/>
    <path id="Path_750" data-name="Path 750" d="M122.251,194.349a6.5,6.5,0,1,1-6.5-6.5,6.5,6.5,0,0,1,6.5,6.5" transform="translate(-13.99 -6.414)" fill="#7c959f"/>
    <path id="Path_751" data-name="Path 751" d="M140.728,194.349a6.5,6.5,0,1,1-6.5-6.5,6.5,6.5,0,0,1,6.5,6.5" transform="translate(-12.902 -6.414)" fill="#7c959f"/>
    <path id="Path_752" data-name="Path 752" d="M159.205,194.349a6.5,6.5,0,1,1-6.5-6.5,6.5,6.5,0,0,1,6.5,6.5" transform="translate(-11.813 -6.414)" fill="#7c959f"/>
    <path id="Path_753" data-name="Path 753" d="M177.682,194.349a6.5,6.5,0,1,1-6.5-6.5,6.5,6.5,0,0,1,6.5,6.5" transform="translate(-10.725 -6.414)" fill="#7c959f"/>
    <path id="Path_754" data-name="Path 754" d="M196.159,194.349a6.5,6.5,0,1,1-6.5-6.5,6.5,6.5,0,0,1,6.5,6.5" transform="translate(-9.637 -6.414)" fill="#7c959f"/>
    <path id="Path_755" data-name="Path 755" d="M251.59,194.349a6.5,6.5,0,1,1-6.5-6.5,6.5,6.5,0,0,1,6.5,6.5" transform="translate(-6.372 -6.414)" fill="#7c959f"/>
    <path id="Path_756" data-name="Path 756" d="M270.067,194.349a6.5,6.5,0,1,1-6.5-6.5,6.5,6.5,0,0,1,6.5,6.5" transform="translate(-5.284 -6.414)" fill="#7c959f"/>
    <path id="Path_757" data-name="Path 757" d="M288.544,194.349a6.5,6.5,0,1,1-6.5-6.5,6.5,6.5,0,0,1,6.5,6.5" transform="translate(-4.196 -6.414)" fill="#7c959f"/>
    <path id="Path_758" data-name="Path 758" d="M380.929,194.349a6.5,6.5,0,1,1-6.5-6.5,6.5,6.5,0,0,1,6.5,6.5" transform="translate(1.246 -6.414)" fill="#7c959f"/>
    <path id="Path_759" data-name="Path 759" d="M436.36,194.349a6.5,6.5,0,1,1-6.5-6.5,6.5,6.5,0,0,1,6.5,6.5" transform="translate(4.51 -6.414)" fill="#7c959f"/>
    <path id="Path_760" data-name="Path 760" d="M454.837,194.349a6.5,6.5,0,1,1-6.5-6.5,6.5,6.5,0,0,1,6.5,6.5" transform="translate(5.599 -6.414)" fill="#7c959f"/>
    <path id="Path_761" data-name="Path 761" d="M473.314,194.349a6.5,6.5,0,1,1-6.5-6.5,6.5,6.5,0,0,1,6.5,6.5" transform="translate(6.687 -6.414)" fill="#7c959f"/>
    <path id="Path_762" data-name="Path 762" d="M491.791,194.349a6.5,6.5,0,1,1-6.5-6.5,6.5,6.5,0,0,1,6.5,6.5" transform="translate(7.775 -6.414)" fill="#7c959f"/>
    <path id="Path_763" data-name="Path 763" d="M510.268,194.349a6.5,6.5,0,1,1-6.5-6.5,6.5,6.5,0,0,1,6.5,6.5" transform="translate(8.863 -6.414)" fill="#7c959f"/>
    <path id="Path_764" data-name="Path 764" d="M528.745,194.349a6.5,6.5,0,1,1-6.5-6.5,6.5,6.5,0,0,1,6.5,6.5" transform="translate(9.952 -6.414)" fill="#7c959f"/>
    <path id="Path_765" data-name="Path 765" d="M547.222,194.349a6.5,6.5,0,1,1-6.5-6.5,6.5,6.5,0,0,1,6.5,6.5" transform="translate(11.04 -6.414)" fill="#7c959f"/>
    <path id="Path_766" data-name="Path 766" d="M565.7,194.349a6.5,6.5,0,1,1-6.5-6.5,6.5,6.5,0,0,1,6.5,6.5" transform="translate(12.128 -6.414)" fill="#7c959f"/>
    <path id="Path_767" data-name="Path 767" d="M584.176,194.349a6.5,6.5,0,1,1-6.5-6.5,6.5,6.5,0,0,1,6.5,6.5" transform="translate(13.216 -6.414)" fill="#7c959f"/>
    <path id="Path_768" data-name="Path 768" d="M602.653,194.349a6.5,6.5,0,1,1-6.5-6.5,6.5,6.5,0,0,1,6.5,6.5" transform="translate(14.305 -6.414)" fill="#7c959f"/>
    <path id="Path_769" data-name="Path 769" d="M621.13,194.349a6.5,6.5,0,1,1-6.5-6.5,6.5,6.5,0,0,1,6.5,6.5" transform="translate(15.393 -6.414)" fill="#7c959f"/>
    <path id="Path_770" data-name="Path 770" d="M639.607,194.349a6.5,6.5,0,1,1-6.5-6.5,6.5,6.5,0,0,1,6.5,6.5" transform="translate(16.481 -6.414)" fill="#7c959f"/>
    <path id="Path_771" data-name="Path 771" d="M48.343,211.575a6.5,6.5,0,1,1-6.5-6.5,6.5,6.5,0,0,1,6.5,6.5" transform="translate(-18.343 -5.4)" fill="#7c959f"/>
    <path id="Path_772" data-name="Path 772" d="M66.82,211.575a6.5,6.5,0,1,1-6.5-6.5,6.5,6.5,0,0,1,6.5,6.5" transform="translate(-17.255 -5.4)" fill="#7c959f"/>
    <path id="Path_773" data-name="Path 773" d="M85.3,211.575a6.5,6.5,0,1,1-6.5-6.5,6.5,6.5,0,0,1,6.5,6.5" transform="translate(-16.166 -5.4)" fill="#7c959f"/>
    <path id="Path_774" data-name="Path 774" d="M103.774,211.575a6.5,6.5,0,1,1-6.5-6.5,6.5,6.5,0,0,1,6.5,6.5" transform="translate(-15.078 -5.4)" fill="#7c959f"/>
    <path id="Path_775" data-name="Path 775" d="M122.251,211.575a6.5,6.5,0,1,1-6.5-6.5,6.5,6.5,0,0,1,6.5,6.5" transform="translate(-13.99 -5.4)" fill="#7c959f"/>
    <path id="Path_776" data-name="Path 776" d="M140.728,211.575a6.5,6.5,0,1,1-6.5-6.5,6.5,6.5,0,0,1,6.5,6.5" transform="translate(-12.902 -5.4)" fill="#7c959f"/>
    <path id="Path_777" data-name="Path 777" d="M159.205,211.575a6.5,6.5,0,1,1-6.5-6.5,6.5,6.5,0,0,1,6.5,6.5" transform="translate(-11.813 -5.4)" fill="#7c959f"/>
    <path id="Path_778" data-name="Path 778" d="M177.682,211.575a6.5,6.5,0,1,1-6.5-6.5,6.5,6.5,0,0,1,6.5,6.5" transform="translate(-10.725 -5.4)" fill="#7c959f"/>
    <path id="Path_779" data-name="Path 779" d="M214.636,211.575a6.5,6.5,0,1,1-6.5-6.5,6.5,6.5,0,0,1,6.5,6.5" transform="translate(-8.549 -5.4)" fill="#7c959f"/>
    <path id="Path_780" data-name="Path 780" d="M251.59,211.575a6.5,6.5,0,1,1-6.5-6.5,6.5,6.5,0,0,1,6.5,6.5" transform="translate(-6.372 -5.4)" fill="#7c959f"/>
    <path id="Path_781" data-name="Path 781" d="M270.067,211.575a6.5,6.5,0,1,1-6.5-6.5,6.5,6.5,0,0,1,6.5,6.5" transform="translate(-5.284 -5.4)" fill="#7c959f"/>
    <path id="Path_782" data-name="Path 782" d="M362.452,211.575a6.5,6.5,0,1,1-6.5-6.5,6.5,6.5,0,0,1,6.5,6.5" transform="translate(0.157 -5.4)" fill="#7c959f"/>
    <path id="Path_783" data-name="Path 783" d="M380.929,211.575a6.5,6.5,0,1,1-6.5-6.5,6.5,6.5,0,0,1,6.5,6.5" transform="translate(1.246 -5.4)" fill="#7c959f"/>
    <path id="Path_784" data-name="Path 784" d="M399.406,211.575a6.5,6.5,0,1,1-6.5-6.5,6.5,6.5,0,0,1,6.5,6.5" transform="translate(2.334 -5.4)" fill="#7c959f"/>
    <path id="Path_785" data-name="Path 785" d="M417.883,211.575a6.5,6.5,0,1,1-6.5-6.5,6.5,6.5,0,0,1,6.5,6.5" transform="translate(3.422 -5.4)" fill="#7c959f"/>
    <path id="Path_786" data-name="Path 786" d="M436.36,211.575a6.5,6.5,0,1,1-6.5-6.5,6.5,6.5,0,0,1,6.5,6.5" transform="translate(4.51 -5.4)" fill="#7c959f"/>
    <path id="Path_787" data-name="Path 787" d="M454.837,211.575a6.5,6.5,0,1,1-6.5-6.5,6.5,6.5,0,0,1,6.5,6.5" transform="translate(5.599 -5.4)" fill="#7c959f"/>
    <path id="Path_788" data-name="Path 788" d="M473.314,211.575a6.5,6.5,0,1,1-6.5-6.5,6.5,6.5,0,0,1,6.5,6.5" transform="translate(6.687 -5.4)" fill="#7c959f"/>
    <path id="Path_789" data-name="Path 789" d="M491.791,211.575a6.5,6.5,0,1,1-6.5-6.5,6.5,6.5,0,0,1,6.5,6.5" transform="translate(7.775 -5.4)" fill="#7c959f"/>
    <path id="Path_790" data-name="Path 790" d="M510.268,211.575a6.5,6.5,0,1,1-6.5-6.5,6.5,6.5,0,0,1,6.5,6.5" transform="translate(8.863 -5.4)" fill="#7c959f"/>
    <path id="Path_791" data-name="Path 791" d="M528.745,211.575a6.5,6.5,0,1,1-6.5-6.5,6.5,6.5,0,0,1,6.5,6.5" transform="translate(9.952 -5.4)" fill="#7c959f"/>
    <path id="Path_792" data-name="Path 792" d="M547.222,211.575a6.5,6.5,0,1,1-6.5-6.5,6.5,6.5,0,0,1,6.5,6.5" transform="translate(11.04 -5.4)" fill="#7c959f"/>
    <path id="Path_793" data-name="Path 793" d="M565.7,211.575a6.5,6.5,0,1,1-6.5-6.5,6.5,6.5,0,0,1,6.5,6.5" transform="translate(12.128 -5.4)" fill="#7c959f"/>
    <path id="Path_794" data-name="Path 794" d="M584.176,211.575a6.5,6.5,0,1,1-6.5-6.5,6.5,6.5,0,0,1,6.5,6.5" transform="translate(13.216 -5.4)" fill="#7c959f"/>
    <path id="Path_795" data-name="Path 795" d="M602.653,211.575a6.5,6.5,0,1,1-6.5-6.5,6.5,6.5,0,0,1,6.5,6.5" transform="translate(14.305 -5.4)" fill="#7c959f"/>
    <path id="Path_796" data-name="Path 796" d="M621.13,211.575a6.5,6.5,0,1,1-6.5-6.5,6.5,6.5,0,0,1,6.5,6.5" transform="translate(15.393 -5.4)" fill="#7c959f"/>
    <path id="Path_797" data-name="Path 797" d="M639.607,211.575a6.5,6.5,0,1,1-6.5-6.5,6.5,6.5,0,0,1,6.5,6.5" transform="translate(16.481 -5.4)" fill="#7c959f"/>
    <path id="Path_798" data-name="Path 798" d="M48.343,228.8a6.5,6.5,0,1,1-6.5-6.5,6.5,6.5,0,0,1,6.5,6.5" transform="translate(-18.343 -4.385)" fill="#fb3f07"/>
    <path id="Path_799" data-name="Path 799" d="M66.82,228.8a6.5,6.5,0,1,1-6.5-6.5,6.5,6.5,0,0,1,6.5,6.5" transform="translate(-17.255 -4.385)" fill="#7c959f"/>
    <path id="Path_800" data-name="Path 800" d="M85.3,228.8a6.5,6.5,0,1,1-6.5-6.5,6.5,6.5,0,0,1,6.5,6.5" transform="translate(-16.166 -4.385)" fill="#7c959f"/>
    <path id="Path_801" data-name="Path 801" d="M103.774,228.8a6.5,6.5,0,1,1-6.5-6.5,6.5,6.5,0,0,1,6.5,6.5" transform="translate(-15.078 -4.385)" fill="#7c959f"/>
    <path id="Path_802" data-name="Path 802" d="M122.251,228.8a6.5,6.5,0,1,1-6.5-6.5,6.5,6.5,0,0,1,6.5,6.5" transform="translate(-13.99 -4.385)" fill="#7c959f"/>
    <path id="Path_803" data-name="Path 803" d="M140.728,228.8a6.5,6.5,0,1,1-6.5-6.5,6.5,6.5,0,0,1,6.5,6.5" transform="translate(-12.902 -4.385)" fill="#7c959f"/>
    <path id="Path_804" data-name="Path 804" d="M159.205,228.8a6.5,6.5,0,1,1-6.5-6.5,6.5,6.5,0,0,1,6.5,6.5" transform="translate(-11.813 -4.385)" fill="#7c959f"/>
    <path id="Path_805" data-name="Path 805" d="M214.636,228.8a6.5,6.5,0,1,1-6.5-6.5,6.5,6.5,0,0,1,6.5,6.5" transform="translate(-8.549 -4.385)" fill="#7c959f"/>
    <path id="Path_806" data-name="Path 806" d="M251.59,228.8a6.5,6.5,0,1,1-6.5-6.5,6.5,6.5,0,0,1,6.5,6.5" transform="translate(-6.372 -4.385)" fill="#7c959f"/>
    <path id="Path_807" data-name="Path 807" d="M307.021,228.8a6.5,6.5,0,1,1-6.5-6.5,6.5,6.5,0,0,1,6.5,6.5" transform="translate(-3.107 -4.385)" fill="#fb3f07"/>
    <path id="Path_808" data-name="Path 808" d="M343.975,228.8a6.5,6.5,0,1,1-6.5-6.5,6.5,6.5,0,0,1,6.5,6.5" transform="translate(-0.931 -4.385)" fill="#7c959f"/>
    <path id="Path_809" data-name="Path 809" d="M362.452,228.8a6.5,6.5,0,1,1-6.5-6.5,6.5,6.5,0,0,1,6.5,6.5" transform="translate(0.157 -4.385)" fill="#7c959f"/>
    <path id="Path_810" data-name="Path 810" d="M380.929,228.8a6.5,6.5,0,1,1-6.5-6.5,6.5,6.5,0,0,1,6.5,6.5" transform="translate(1.246 -4.385)" fill="#7c959f"/>
    <path id="Path_811" data-name="Path 811" d="M399.406,228.8a6.5,6.5,0,1,1-6.5-6.5,6.5,6.5,0,0,1,6.5,6.5" transform="translate(2.334 -4.385)" fill="#7c959f"/>
    <path id="Path_812" data-name="Path 812" d="M417.883,228.8a6.5,6.5,0,1,1-6.5-6.5,6.5,6.5,0,0,1,6.5,6.5" transform="translate(3.422 -4.385)" fill="#7c959f"/>
    <path id="Path_813" data-name="Path 813" d="M436.36,228.8a6.5,6.5,0,1,1-6.5-6.5,6.5,6.5,0,0,1,6.5,6.5" transform="translate(4.51 -4.385)" fill="#7c959f"/>
    <path id="Path_814" data-name="Path 814" d="M454.837,228.8a6.5,6.5,0,1,1-6.5-6.5,6.5,6.5,0,0,1,6.5,6.5" transform="translate(5.599 -4.385)" fill="#7c959f"/>
    <path id="Path_815" data-name="Path 815" d="M473.314,228.8a6.5,6.5,0,1,1-6.5-6.5,6.5,6.5,0,0,1,6.5,6.5" transform="translate(6.687 -4.385)" fill="#7c959f"/>
    <path id="Path_816" data-name="Path 816" d="M491.791,228.8a6.5,6.5,0,1,1-6.5-6.5,6.5,6.5,0,0,1,6.5,6.5" transform="translate(7.775 -4.385)" fill="#7c959f"/>
    <path id="Path_817" data-name="Path 817" d="M510.268,228.8a6.5,6.5,0,1,1-6.5-6.5,6.5,6.5,0,0,1,6.5,6.5" transform="translate(8.863 -4.385)" fill="#7c959f"/>
    <path id="Path_818" data-name="Path 818" d="M528.745,228.8a6.5,6.5,0,1,1-6.5-6.5,6.5,6.5,0,0,1,6.5,6.5" transform="translate(9.952 -4.385)" fill="#7c959f"/>
    <path id="Path_819" data-name="Path 819" d="M547.222,228.8a6.5,6.5,0,1,1-6.5-6.5,6.5,6.5,0,0,1,6.5,6.5" transform="translate(11.04 -4.385)" fill="#7c959f"/>
    <path id="Path_820" data-name="Path 820" d="M565.7,228.8a6.5,6.5,0,1,1-6.5-6.5,6.5,6.5,0,0,1,6.5,6.5" transform="translate(12.128 -4.385)" fill="#7c959f"/>
    <path id="Path_821" data-name="Path 821" d="M584.176,228.8a6.5,6.5,0,1,1-6.5-6.5,6.5,6.5,0,0,1,6.5,6.5" transform="translate(13.216 -4.385)" fill="#7c959f"/>
    <path id="Path_822" data-name="Path 822" d="M602.653,228.8a6.5,6.5,0,1,1-6.5-6.5,6.5,6.5,0,0,1,6.5,6.5" transform="translate(14.305 -4.385)" fill="#7c959f"/>
    <path id="Path_823" data-name="Path 823" d="M621.13,228.8a6.5,6.5,0,1,1-6.5-6.5,6.5,6.5,0,0,1,6.5,6.5" transform="translate(15.393 -4.385)" fill="#7c959f"/>
    <path id="Path_824" data-name="Path 824" d="M639.607,228.8a6.5,6.5,0,1,1-6.5-6.5,6.5,6.5,0,0,1,6.5,6.5" transform="translate(16.481 -4.385)" fill="#7c959f"/>
    <path id="Path_825" data-name="Path 825" d="M48.343,246.025a6.5,6.5,0,1,1-6.5-6.5,6.5,6.5,0,0,1,6.5,6.5" transform="translate(-18.343 -3.371)" fill="#7c959f"/>
    <path id="Path_826" data-name="Path 826" d="M66.82,246.025a6.5,6.5,0,1,1-6.5-6.5,6.5,6.5,0,0,1,6.5,6.5" transform="translate(-17.255 -3.371)" fill="#7c959f"/>
    <path id="Path_827" data-name="Path 827" d="M103.774,246.025a6.5,6.5,0,1,1-6.5-6.5,6.5,6.5,0,0,1,6.5,6.5" transform="translate(-15.078 -3.371)" fill="#7c959f"/>
    <path id="Path_828" data-name="Path 828" d="M122.251,246.025a6.5,6.5,0,1,1-6.5-6.5,6.5,6.5,0,0,1,6.5,6.5" transform="translate(-13.99 -3.371)" fill="#7c959f"/>
    <path id="Path_829" data-name="Path 829" d="M140.728,246.025a6.5,6.5,0,1,1-6.5-6.5,6.5,6.5,0,0,1,6.5,6.5" transform="translate(-12.902 -3.371)" fill="#7c959f"/>
    <path id="Path_830" data-name="Path 830" d="M159.205,246.025a6.5,6.5,0,1,1-6.5-6.5,6.5,6.5,0,0,1,6.5,6.5" transform="translate(-11.813 -3.371)" fill="#7c959f"/>
    <path id="Path_831" data-name="Path 831" d="M214.636,246.025a6.5,6.5,0,1,1-6.5-6.5,6.5,6.5,0,0,1,6.5,6.5" transform="translate(-8.549 -3.371)" fill="#7c959f"/>
    <path id="Path_832" data-name="Path 832" d="M343.975,246.025a6.5,6.5,0,1,1-6.5-6.5,6.5,6.5,0,0,1,6.5,6.5" transform="translate(-0.931 -3.371)" fill="#7c959f"/>
    <path id="Path_833" data-name="Path 833" d="M362.452,246.025a6.5,6.5,0,1,1-6.5-6.5,6.5,6.5,0,0,1,6.5,6.5" transform="translate(0.157 -3.371)" fill="#7c959f"/>
    <path id="Path_834" data-name="Path 834" d="M380.929,246.025a6.5,6.5,0,1,1-6.5-6.5,6.5,6.5,0,0,1,6.5,6.5" transform="translate(1.246 -3.371)" fill="#7c959f"/>
    <path id="Path_835" data-name="Path 835" d="M399.406,246.025a6.5,6.5,0,1,1-6.5-6.5,6.5,6.5,0,0,1,6.5,6.5" transform="translate(2.334 -3.371)" fill="#7c959f"/>
    <path id="Path_836" data-name="Path 836" d="M417.883,246.025a6.5,6.5,0,1,1-6.5-6.5,6.5,6.5,0,0,1,6.5,6.5" transform="translate(3.422 -3.371)" fill="#7c959f"/>
    <path id="Path_837" data-name="Path 837" d="M436.36,246.025a6.5,6.5,0,1,1-6.5-6.5,6.5,6.5,0,0,1,6.5,6.5" transform="translate(4.51 -3.371)" fill="#7c959f"/>
    <path id="Path_838" data-name="Path 838" d="M454.837,246.025a6.5,6.5,0,1,1-6.5-6.5,6.5,6.5,0,0,1,6.5,6.5" transform="translate(5.599 -3.371)" fill="#7c959f"/>
    <path id="Path_839" data-name="Path 839" d="M473.314,246.025a6.5,6.5,0,1,1-6.5-6.5,6.5,6.5,0,0,1,6.5,6.5" transform="translate(6.687 -3.371)" fill="#7c959f"/>
    <path id="Path_840" data-name="Path 840" d="M491.791,246.025a6.5,6.5,0,1,1-6.5-6.5,6.5,6.5,0,0,1,6.5,6.5" transform="translate(7.775 -3.371)" fill="#7c959f"/>
    <path id="Path_841" data-name="Path 841" d="M510.268,246.025a6.5,6.5,0,1,1-6.5-6.5,6.5,6.5,0,0,1,6.5,6.5" transform="translate(8.863 -3.371)" fill="#7c959f"/>
    <path id="Path_842" data-name="Path 842" d="M528.745,246.025a6.5,6.5,0,1,1-6.5-6.5,6.5,6.5,0,0,1,6.5,6.5" transform="translate(9.952 -3.371)" fill="#7c959f"/>
    <path id="Path_843" data-name="Path 843" d="M547.222,246.025a6.5,6.5,0,1,1-6.5-6.5,6.5,6.5,0,0,1,6.5,6.5" transform="translate(11.04 -3.371)" fill="#7c959f"/>
    <path id="Path_844" data-name="Path 844" d="M565.7,246.025a6.5,6.5,0,1,1-6.5-6.5,6.5,6.5,0,0,1,6.5,6.5" transform="translate(12.128 -3.371)" fill="#7c959f"/>
    <path id="Path_845" data-name="Path 845" d="M584.176,246.025a6.5,6.5,0,1,1-6.5-6.5,6.5,6.5,0,0,1,6.5,6.5" transform="translate(13.216 -3.371)" fill="#7c959f"/>
    <path id="Path_846" data-name="Path 846" d="M621.13,246.025a6.5,6.5,0,1,1-6.5-6.5,6.5,6.5,0,0,1,6.5,6.5" transform="translate(15.393 -3.371)" fill="#7c959f"/>
    <path id="Path_847" data-name="Path 847" d="M103.774,263.25a6.5,6.5,0,1,1-6.5-6.5,6.5,6.5,0,0,1,6.5,6.5" transform="translate(-15.078 -2.356)" fill="#7c959f"/>
    <path id="Path_848" data-name="Path 848" d="M122.251,263.25a6.5,6.5,0,1,1-6.5-6.5,6.5,6.5,0,0,1,6.5,6.5" transform="translate(-13.99 -2.356)" fill="#7c959f"/>
    <path id="Path_849" data-name="Path 849" d="M140.728,263.25a6.5,6.5,0,1,1-6.5-6.5,6.5,6.5,0,0,1,6.5,6.5" transform="translate(-12.902 -2.356)" fill="#7c959f"/>
    <path id="Path_850" data-name="Path 850" d="M159.205,263.25a6.5,6.5,0,1,1-6.5-6.5,6.5,6.5,0,0,1,6.5,6.5" transform="translate(-11.813 -2.356)" fill="#7c959f"/>
    <path id="Path_851" data-name="Path 851" d="M177.682,263.25a6.5,6.5,0,1,1-6.5-6.5,6.5,6.5,0,0,1,6.5,6.5" transform="translate(-10.725 -2.356)" fill="#7c959f"/>
    <path id="Path_852" data-name="Path 852" d="M196.159,263.25a6.5,6.5,0,1,1-6.5-6.5,6.5,6.5,0,0,1,6.5,6.5" transform="translate(-9.637 -2.356)" fill="#7c959f"/>
    <path id="Path_853" data-name="Path 853" d="M214.636,263.25a6.5,6.5,0,1,1-6.5-6.5,6.5,6.5,0,0,1,6.5,6.5" transform="translate(-8.549 -2.356)" fill="#7c959f"/>
    <path id="Path_854" data-name="Path 854" d="M233.113,263.25a6.5,6.5,0,1,1-6.5-6.5,6.5,6.5,0,0,1,6.5,6.5" transform="translate(-7.46 -2.356)" fill="#7c959f"/>
    <path id="Path_855" data-name="Path 855" d="M325.5,263.25a6.5,6.5,0,1,1-6.5-6.5,6.5,6.5,0,0,1,6.5,6.5" transform="translate(-2.019 -2.356)" fill="#fb3f07"/>
    <path id="Path_856" data-name="Path 856" d="M343.975,263.25a6.5,6.5,0,1,1-6.5-6.5,6.5,6.5,0,0,1,6.5,6.5" transform="translate(-0.931 -2.356)" fill="#7c959f"/>
    <path id="Path_857" data-name="Path 857" d="M362.452,263.25a6.5,6.5,0,1,1-6.5-6.5,6.5,6.5,0,0,1,6.5,6.5" transform="translate(0.157 -2.356)" fill="#7c959f"/>
    <path id="Path_858" data-name="Path 858" d="M380.929,263.25a6.5,6.5,0,1,1-6.5-6.5,6.5,6.5,0,0,1,6.5,6.5" transform="translate(1.246 -2.356)" fill="#7c959f"/>
    <path id="Path_859" data-name="Path 859" d="M399.406,263.25a6.5,6.5,0,1,1-6.5-6.5,6.5,6.5,0,0,1,6.5,6.5" transform="translate(2.334 -2.356)" fill="#7c959f"/>
    <path id="Path_860" data-name="Path 860" d="M417.883,263.25a6.5,6.5,0,1,1-6.5-6.5,6.5,6.5,0,0,1,6.5,6.5" transform="translate(3.422 -2.356)" fill="#7c959f"/>
    <path id="Path_861" data-name="Path 861" d="M436.36,263.25a6.5,6.5,0,1,1-6.5-6.5,6.5,6.5,0,0,1,6.5,6.5" transform="translate(4.51 -2.356)" fill="#7c959f"/>
    <path id="Path_862" data-name="Path 862" d="M454.837,263.25a6.5,6.5,0,1,1-6.5-6.5,6.5,6.5,0,0,1,6.5,6.5" transform="translate(5.599 -2.356)" fill="#7c959f"/>
    <path id="Path_863" data-name="Path 863" d="M473.314,263.25a6.5,6.5,0,1,1-6.5-6.5,6.5,6.5,0,0,1,6.5,6.5" transform="translate(6.687 -2.356)" fill="#7c959f"/>
    <path id="Path_864" data-name="Path 864" d="M491.791,263.25a6.5,6.5,0,1,1-6.5-6.5,6.5,6.5,0,0,1,6.5,6.5" transform="translate(7.775 -2.356)" fill="#7c959f"/>
    <path id="Path_865" data-name="Path 865" d="M510.268,263.25a6.5,6.5,0,1,1-6.5-6.5,6.5,6.5,0,0,1,6.5,6.5" transform="translate(8.863 -2.356)" fill="#7c959f"/>
    <path id="Path_866" data-name="Path 866" d="M528.745,263.25a6.5,6.5,0,1,1-6.5-6.5,6.5,6.5,0,0,1,6.5,6.5" transform="translate(9.952 -2.356)" fill="#7c959f"/>
    <path id="Path_867" data-name="Path 867" d="M547.222,263.25a6.5,6.5,0,1,1-6.5-6.5,6.5,6.5,0,0,1,6.5,6.5" transform="translate(11.04 -2.356)" fill="#7c959f"/>
    <path id="Path_868" data-name="Path 868" d="M565.7,263.25a6.5,6.5,0,1,1-6.5-6.5,6.5,6.5,0,0,1,6.5,6.5" transform="translate(12.128 -2.356)" fill="#7c959f"/>
    <path id="Path_869" data-name="Path 869" d="M584.176,263.25a6.5,6.5,0,1,1-6.5-6.5,6.5,6.5,0,0,1,6.5,6.5" transform="translate(13.216 -2.356)" fill="#7c959f"/>
    <path id="Path_870" data-name="Path 870" d="M122.251,280.475a6.5,6.5,0,1,1-6.5-6.5,6.5,6.5,0,0,1,6.5,6.5" transform="translate(-13.99 -1.342)" fill="#7c959f"/>
    <path id="Path_871" data-name="Path 871" d="M140.728,280.475a6.5,6.5,0,1,1-6.5-6.5,6.5,6.5,0,0,1,6.5,6.5" transform="translate(-12.902 -1.342)" fill="#7c959f"/>
    <path id="Path_872" data-name="Path 872" d="M159.205,280.475a6.5,6.5,0,1,1-6.5-6.5,6.5,6.5,0,0,1,6.5,6.5" transform="translate(-11.813 -1.342)" fill="#7c959f"/>
    <path id="Path_873" data-name="Path 873" d="M177.682,280.475a6.5,6.5,0,1,1-6.5-6.5,6.5,6.5,0,0,1,6.5,6.5" transform="translate(-10.725 -1.342)" fill="#7c959f"/>
    <path id="Path_874" data-name="Path 874" d="M196.159,280.475a6.5,6.5,0,1,1-6.5-6.5,6.5,6.5,0,0,1,6.5,6.5" transform="translate(-9.637 -1.342)" fill="#7c959f"/>
    <path id="Path_875" data-name="Path 875" d="M214.636,280.475a6.5,6.5,0,1,1-6.5-6.5,6.5,6.5,0,0,1,6.5,6.5" transform="translate(-8.549 -1.342)" fill="#7c959f"/>
    <path id="Path_876" data-name="Path 876" d="M233.113,280.475a6.5,6.5,0,1,1-6.5-6.5,6.5,6.5,0,0,1,6.5,6.5" transform="translate(-7.46 -1.342)" fill="#fb3f07"/>
    <path id="Path_877" data-name="Path 877" d="M325.5,280.475a6.5,6.5,0,1,1-6.5-6.5,6.5,6.5,0,0,1,6.5,6.5" transform="translate(-2.019 -1.342)" fill="#7c959f"/>
    <path id="Path_878" data-name="Path 878" d="M343.975,280.475a6.5,6.5,0,1,1-6.5-6.5,6.5,6.5,0,0,1,6.5,6.5" transform="translate(-0.931 -1.342)" fill="#7c959f"/>
    <path id="Path_879" data-name="Path 879" d="M362.452,280.475a6.5,6.5,0,1,1-6.5-6.5,6.5,6.5,0,0,1,6.5,6.5" transform="translate(0.157 -1.342)" fill="#7c959f"/>
    <path id="Path_880" data-name="Path 880" d="M380.929,280.475a6.5,6.5,0,1,1-6.5-6.5,6.5,6.5,0,0,1,6.5,6.5" transform="translate(1.246 -1.342)" fill="#7c959f"/>
    <path id="Path_881" data-name="Path 881" d="M399.406,280.475a6.5,6.5,0,1,1-6.5-6.5,6.5,6.5,0,0,1,6.5,6.5" transform="translate(2.334 -1.342)" fill="#7c959f"/>
    <path id="Path_882" data-name="Path 882" d="M417.883,280.475a6.5,6.5,0,1,1-6.5-6.5,6.5,6.5,0,0,1,6.5,6.5" transform="translate(3.422 -1.342)" fill="#7c959f"/>
    <path id="Path_883" data-name="Path 883" d="M436.36,280.475a6.5,6.5,0,1,1-6.5-6.5,6.5,6.5,0,0,1,6.5,6.5" transform="translate(4.51 -1.342)" fill="#7c959f"/>
    <path id="Path_884" data-name="Path 884" d="M454.837,280.475a6.5,6.5,0,1,1-6.5-6.5,6.5,6.5,0,0,1,6.5,6.5" transform="translate(5.599 -1.342)" fill="#7c959f"/>
    <path id="Path_885" data-name="Path 885" d="M473.314,280.475a6.5,6.5,0,1,1-6.5-6.5,6.5,6.5,0,0,1,6.5,6.5" transform="translate(6.687 -1.342)" fill="#7c959f"/>
    <path id="Path_886" data-name="Path 886" d="M491.791,280.475a6.5,6.5,0,1,1-6.5-6.5,6.5,6.5,0,0,1,6.5,6.5" transform="translate(7.775 -1.342)" fill="#7c959f"/>
    <path id="Path_887" data-name="Path 887" d="M510.268,280.475a6.5,6.5,0,1,1-6.5-6.5,6.5,6.5,0,0,1,6.5,6.5" transform="translate(8.863 -1.342)" fill="#7c959f"/>
    <path id="Path_888" data-name="Path 888" d="M528.745,280.475a6.5,6.5,0,1,1-6.5-6.5,6.5,6.5,0,0,1,6.5,6.5" transform="translate(9.952 -1.342)" fill="#7c959f"/>
    <path id="Path_889" data-name="Path 889" d="M547.222,280.475a6.5,6.5,0,1,1-6.5-6.5,6.5,6.5,0,0,1,6.5,6.5" transform="translate(11.04 -1.342)" fill="#7c959f"/>
    <path id="Path_890" data-name="Path 890" d="M565.7,280.475a6.5,6.5,0,1,1-6.5-6.5,6.5,6.5,0,0,1,6.5,6.5" transform="translate(12.128 -1.342)" fill="#7c959f"/>
    <path id="Path_891" data-name="Path 891" d="M584.176,280.475a6.5,6.5,0,1,1-6.5-6.5,6.5,6.5,0,0,1,6.5,6.5" transform="translate(13.216 -1.342)" fill="#7c959f"/>
    <path id="Path_892" data-name="Path 892" d="M122.251,297.7a6.5,6.5,0,1,1-6.5-6.5,6.5,6.5,0,0,1,6.5,6.5" transform="translate(-13.99 -0.327)" fill="#7c959f"/>
    <path id="Path_893" data-name="Path 893" d="M140.728,297.7a6.5,6.5,0,1,1-6.5-6.5,6.5,6.5,0,0,1,6.5,6.5" transform="translate(-12.902 -0.327)" fill="#7c959f"/>
    <path id="Path_894" data-name="Path 894" d="M159.205,297.7a6.5,6.5,0,1,1-6.5-6.5,6.5,6.5,0,0,1,6.5,6.5" transform="translate(-11.813 -0.327)" fill="#7c959f"/>
    <path id="Path_895" data-name="Path 895" d="M177.682,297.7a6.5,6.5,0,1,1-6.5-6.5,6.5,6.5,0,0,1,6.5,6.5" transform="translate(-10.725 -0.327)" fill="#7c959f"/>
    <path id="Path_896" data-name="Path 896" d="M196.159,297.7a6.5,6.5,0,1,1-6.5-6.5,6.5,6.5,0,0,1,6.5,6.5" transform="translate(-9.637 -0.327)" fill="#7c959f"/>
    <path id="Path_897" data-name="Path 897" d="M325.5,297.7a6.5,6.5,0,1,1-6.5-6.5,6.5,6.5,0,0,1,6.5,6.5" transform="translate(-2.019 -0.327)" fill="#fb3f07"/>
    <path id="Path_898" data-name="Path 898" d="M343.975,297.7a6.5,6.5,0,1,1-6.5-6.5,6.5,6.5,0,0,1,6.5,6.5" transform="translate(-0.931 -0.327)" fill="#7c959f"/>
    <path id="Path_899" data-name="Path 899" d="M362.452,297.7a6.5,6.5,0,1,1-6.5-6.5,6.5,6.5,0,0,1,6.5,6.5" transform="translate(0.157 -0.327)" fill="#7c959f"/>
    <path id="Path_900" data-name="Path 900" d="M380.929,297.7a6.5,6.5,0,1,1-6.5-6.5,6.5,6.5,0,0,1,6.5,6.5" transform="translate(1.246 -0.327)" fill="#7c959f"/>
    <path id="Path_901" data-name="Path 901" d="M399.406,297.7a6.5,6.5,0,1,1-6.5-6.5,6.5,6.5,0,0,1,6.5,6.5" transform="translate(2.334 -0.327)" fill="#7c959f"/>
    <path id="Path_902" data-name="Path 902" d="M417.883,297.7a6.5,6.5,0,1,1-6.5-6.5,6.5,6.5,0,0,1,6.5,6.5" transform="translate(3.422 -0.327)" fill="#7c959f"/>
    <path id="Path_903" data-name="Path 903" d="M436.36,297.7a6.5,6.5,0,1,1-6.5-6.5,6.5,6.5,0,0,1,6.5,6.5" transform="translate(4.51 -0.327)" fill="#7c959f"/>
    <path id="Path_904" data-name="Path 904" d="M454.837,297.7a6.5,6.5,0,1,1-6.5-6.5,6.5,6.5,0,0,1,6.5,6.5" transform="translate(5.599 -0.327)" fill="#7c959f"/>
    <path id="Path_905" data-name="Path 905" d="M473.314,297.7a6.5,6.5,0,1,1-6.5-6.5,6.5,6.5,0,0,1,6.5,6.5" transform="translate(6.687 -0.327)" fill="#7c959f"/>
    <path id="Path_906" data-name="Path 906" d="M491.791,297.7a6.5,6.5,0,1,1-6.5-6.5,6.5,6.5,0,0,1,6.5,6.5" transform="translate(7.775 -0.327)" fill="#7c959f"/>
    <path id="Path_907" data-name="Path 907" d="M510.268,297.7a6.5,6.5,0,1,1-6.5-6.5,6.5,6.5,0,0,1,6.5,6.5" transform="translate(8.863 -0.327)" fill="#7c959f"/>
    <path id="Path_908" data-name="Path 908" d="M528.745,297.7a6.5,6.5,0,1,1-6.5-6.5,6.5,6.5,0,0,1,6.5,6.5" transform="translate(9.952 -0.327)" fill="#7c959f"/>
    <path id="Path_909" data-name="Path 909" d="M547.222,297.7a6.5,6.5,0,1,1-6.5-6.5,6.5,6.5,0,0,1,6.5,6.5" transform="translate(11.04 -0.327)" fill="#fb3f07"/>
    <path id="Path_910" data-name="Path 910" d="M584.176,297.7a6.5,6.5,0,1,1-6.5-6.5,6.5,6.5,0,0,1,6.5,6.5" transform="translate(13.216 -0.327)" fill="#7c959f"/>
    <path id="Path_911" data-name="Path 911" d="M122.251,314.925a6.5,6.5,0,1,1-6.5-6.5,6.5,6.5,0,0,1,6.5,6.5" transform="translate(-13.99 0.687)" fill="#7c959f"/>
    <path id="Path_912" data-name="Path 912" d="M140.728,314.925a6.5,6.5,0,1,1-6.5-6.5,6.5,6.5,0,0,1,6.5,6.5" transform="translate(-12.902 0.687)" fill="#7c959f"/>
    <path id="Path_913" data-name="Path 913" d="M159.205,314.925a6.5,6.5,0,1,1-6.5-6.5,6.5,6.5,0,0,1,6.5,6.5" transform="translate(-11.813 0.687)" fill="#7c959f"/>
    <path id="Path_914" data-name="Path 914" d="M177.682,314.925a6.5,6.5,0,1,1-6.5-6.5,6.5,6.5,0,0,1,6.5,6.5" transform="translate(-10.725 0.687)" fill="#7c959f"/>
    <path id="Path_915" data-name="Path 915" d="M196.159,314.925a6.5,6.5,0,1,1-6.5-6.5,6.5,6.5,0,0,1,6.5,6.5" transform="translate(-9.637 0.687)" fill="#7c959f"/>
    <path id="Path_916" data-name="Path 916" d="M325.5,314.925a6.5,6.5,0,1,1-6.5-6.5,6.5,6.5,0,0,1,6.5,6.5" transform="translate(-2.019 0.687)" fill="#7c959f"/>
    <path id="Path_917" data-name="Path 917" d="M343.975,314.925a6.5,6.5,0,1,1-6.5-6.5,6.5,6.5,0,0,1,6.5,6.5" transform="translate(-0.931 0.687)" fill="#7c959f"/>
    <path id="Path_918" data-name="Path 918" d="M362.452,314.925a6.5,6.5,0,1,1-6.5-6.5,6.5,6.5,0,0,1,6.5,6.5" transform="translate(0.157 0.687)" fill="#7c959f"/>
    <path id="Path_919" data-name="Path 919" d="M380.929,314.925a6.5,6.5,0,1,1-6.5-6.5,6.5,6.5,0,0,1,6.5,6.5" transform="translate(1.246 0.687)" fill="#7c959f"/>
    <path id="Path_920" data-name="Path 920" d="M399.406,314.925a6.5,6.5,0,1,1-6.5-6.5,6.5,6.5,0,0,1,6.5,6.5" transform="translate(2.334 0.687)" fill="#7c959f"/>
    <path id="Path_921" data-name="Path 921" d="M417.883,314.925a6.5,6.5,0,1,1-6.5-6.5,6.5,6.5,0,0,1,6.5,6.5" transform="translate(3.422 0.687)" fill="#7c959f"/>
    <path id="Path_922" data-name="Path 922" d="M436.36,314.925a6.5,6.5,0,1,1-6.5-6.5,6.5,6.5,0,0,1,6.5,6.5" transform="translate(4.51 0.687)" fill="#7c959f"/>
    <path id="Path_923" data-name="Path 923" d="M454.837,314.925a6.5,6.5,0,1,1-6.5-6.5,6.5,6.5,0,0,1,6.5,6.5" transform="translate(5.599 0.687)" fill="#7c959f"/>
    <path id="Path_924" data-name="Path 924" d="M473.314,314.925a6.5,6.5,0,1,1-6.5-6.5,6.5,6.5,0,0,1,6.5,6.5" transform="translate(6.687 0.687)" fill="#7c959f"/>
    <path id="Path_925" data-name="Path 925" d="M491.791,314.925a6.5,6.5,0,1,1-6.5-6.5,6.5,6.5,0,0,1,6.5,6.5" transform="translate(7.775 0.687)" fill="#7c959f"/>
    <path id="Path_926" data-name="Path 926" d="M510.268,314.925a6.5,6.5,0,1,1-6.5-6.5,6.5,6.5,0,0,1,6.5,6.5" transform="translate(8.863 0.687)" fill="#7c959f"/>
    <path id="Path_927" data-name="Path 927" d="M528.745,314.925a6.5,6.5,0,1,1-6.5-6.5,6.5,6.5,0,0,1,6.5,6.5" transform="translate(9.952 0.687)" fill="#7c959f"/>
    <path id="Path_928" data-name="Path 928" d="M547.222,314.925a6.5,6.5,0,1,1-6.5-6.5,6.5,6.5,0,0,1,6.5,6.5" transform="translate(11.04 0.687)" fill="#7c959f"/>
    <path id="Path_929" data-name="Path 929" d="M565.7,314.925a6.5,6.5,0,1,1-6.5-6.5,6.5,6.5,0,0,1,6.5,6.5" transform="translate(12.128 0.687)" fill="#7c959f"/>
    <path id="Path_930" data-name="Path 930" d="M140.728,332.15a6.5,6.5,0,1,1-6.5-6.5,6.5,6.5,0,0,1,6.5,6.5" transform="translate(-12.902 1.702)" fill="#7c959f"/>
    <path id="Path_931" data-name="Path 931" d="M159.205,332.15a6.5,6.5,0,1,1-6.5-6.5,6.5,6.5,0,0,1,6.5,6.5" transform="translate(-11.813 1.702)" fill="#7c959f"/>
    <path id="Path_932" data-name="Path 932" d="M177.682,332.15a6.5,6.5,0,1,1-6.5-6.5,6.5,6.5,0,0,1,6.5,6.5" transform="translate(-10.725 1.702)" fill="#7c959f"/>
    <path id="Path_933" data-name="Path 933" d="M307.021,332.15a6.5,6.5,0,1,1-6.5-6.5,6.5,6.5,0,0,1,6.5,6.5" transform="translate(-3.107 1.702)" fill="#7c959f"/>
    <path id="Path_934" data-name="Path 934" d="M325.5,332.15a6.5,6.5,0,1,1-6.5-6.5,6.5,6.5,0,0,1,6.5,6.5" transform="translate(-2.019 1.702)" fill="#7c959f"/>
    <path id="Path_935" data-name="Path 935" d="M343.975,332.15a6.5,6.5,0,1,1-6.5-6.5,6.5,6.5,0,0,1,6.5,6.5" transform="translate(-0.931 1.702)" fill="#7c959f"/>
    <path id="Path_936" data-name="Path 936" d="M362.452,332.15a6.5,6.5,0,1,1-6.5-6.5,6.5,6.5,0,0,1,6.5,6.5" transform="translate(0.157 1.702)" fill="#7c959f"/>
    <path id="Path_937" data-name="Path 937" d="M380.929,332.15a6.5,6.5,0,1,1-6.5-6.5,6.5,6.5,0,0,1,6.5,6.5" transform="translate(1.246 1.702)" fill="#7c959f"/>
    <path id="Path_938" data-name="Path 938" d="M399.406,332.15a6.5,6.5,0,1,1-6.5-6.5,6.5,6.5,0,0,1,6.5,6.5" transform="translate(2.334 1.702)" fill="#7c959f"/>
    <path id="Path_939" data-name="Path 939" d="M417.883,332.15a6.5,6.5,0,1,1-6.5-6.5,6.5,6.5,0,0,1,6.5,6.5" transform="translate(3.422 1.702)" fill="#7c959f"/>
    <path id="Path_940" data-name="Path 940" d="M436.36,332.15a6.5,6.5,0,1,1-6.5-6.5,6.5,6.5,0,0,1,6.5,6.5" transform="translate(4.51 1.702)" fill="#7c959f"/>
    <path id="Path_941" data-name="Path 941" d="M454.837,332.15a6.5,6.5,0,1,1-6.5-6.5,6.5,6.5,0,0,1,6.5,6.5" transform="translate(5.599 1.702)" fill="#7c959f"/>
    <path id="Path_942" data-name="Path 942" d="M473.314,332.15a6.5,6.5,0,1,1-6.5-6.5,6.5,6.5,0,0,1,6.5,6.5" transform="translate(6.687 1.702)" fill="#7c959f"/>
    <path id="Path_943" data-name="Path 943" d="M491.791,332.15a6.5,6.5,0,1,1-6.5-6.5,6.5,6.5,0,0,1,6.5,6.5" transform="translate(7.775 1.702)" fill="#7c959f"/>
    <path id="Path_944" data-name="Path 944" d="M510.268,332.15a6.5,6.5,0,1,1-6.5-6.5,6.5,6.5,0,0,1,6.5,6.5" transform="translate(8.863 1.702)" fill="#7c959f"/>
    <path id="Path_945" data-name="Path 945" d="M528.745,332.15a6.5,6.5,0,1,1-6.5-6.5,6.5,6.5,0,0,1,6.5,6.5" transform="translate(9.952 1.702)" fill="#7c959f"/>
    <path id="Path_946" data-name="Path 946" d="M177.682,349.375a6.5,6.5,0,1,1-6.5-6.5,6.5,6.5,0,0,1,6.5,6.5" transform="translate(-10.725 2.716)" fill="#7c959f"/>
    <path id="Path_947" data-name="Path 947" d="M196.159,349.375a6.5,6.5,0,1,1-6.5-6.5,6.5,6.5,0,0,1,6.5,6.5" transform="translate(-9.637 2.716)" fill="#7c959f"/>
    <path id="Path_948" data-name="Path 948" d="M214.636,349.375a6.5,6.5,0,1,1-6.5-6.5,6.5,6.5,0,0,1,6.5,6.5" transform="translate(-8.549 2.716)" fill="#7c959f"/>
    <path id="Path_949" data-name="Path 949" d="M233.113,349.375a6.5,6.5,0,1,1-6.5-6.5,6.5,6.5,0,0,1,6.5,6.5" transform="translate(-7.46 2.716)" fill="#7c959f"/>
    <path id="Path_950" data-name="Path 950" d="M307.021,349.375a6.5,6.5,0,1,1-6.5-6.5,6.5,6.5,0,0,1,6.5,6.5" transform="translate(-3.107 2.716)" fill="#7c959f"/>
    <path id="Path_951" data-name="Path 951" d="M325.5,349.375a6.5,6.5,0,1,1-6.5-6.5,6.5,6.5,0,0,1,6.5,6.5" transform="translate(-2.019 2.716)" fill="#7c959f"/>
    <path id="Path_952" data-name="Path 952" d="M343.975,349.375a6.5,6.5,0,1,1-6.5-6.5,6.5,6.5,0,0,1,6.5,6.5" transform="translate(-0.931 2.716)" fill="#7c959f"/>
    <path id="Path_953" data-name="Path 953" d="M362.452,349.375a6.5,6.5,0,1,1-6.5-6.5,6.5,6.5,0,0,1,6.5,6.5" transform="translate(0.157 2.716)" fill="#7c959f"/>
    <path id="Path_954" data-name="Path 954" d="M380.929,349.375a6.5,6.5,0,1,1-6.5-6.5,6.5,6.5,0,0,1,6.5,6.5" transform="translate(1.246 2.716)" fill="#7c959f"/>
    <path id="Path_955" data-name="Path 955" d="M399.406,349.375a6.5,6.5,0,1,1-6.5-6.5,6.5,6.5,0,0,1,6.5,6.5" transform="translate(2.334 2.716)" fill="#7c959f"/>
    <path id="Path_956" data-name="Path 956" d="M417.883,349.375a6.5,6.5,0,1,1-6.5-6.5,6.5,6.5,0,0,1,6.5,6.5" transform="translate(3.422 2.716)" fill="#7c959f"/>
    <path id="Path_957" data-name="Path 957" d="M473.314,349.375a6.5,6.5,0,1,1-6.5-6.5,6.5,6.5,0,0,1,6.5,6.5" transform="translate(6.687 2.716)" fill="#7c959f"/>
    <path id="Path_958" data-name="Path 958" d="M510.268,349.375a6.5,6.5,0,1,1-6.5-6.5,6.5,6.5,0,0,1,6.5,6.5" transform="translate(8.863 2.716)" fill="#7c959f"/>
    <path id="Path_959" data-name="Path 959" d="M528.745,349.375a6.5,6.5,0,1,1-6.5-6.5,6.5,6.5,0,0,1,6.5,6.5" transform="translate(9.952 2.716)" fill="#7c959f"/>
    <path id="Path_960" data-name="Path 960" d="M547.222,349.375a6.5,6.5,0,1,1-6.5-6.5,6.5,6.5,0,0,1,6.5,6.5" transform="translate(11.04 2.716)" fill="#7c959f"/>
    <path id="Path_961" data-name="Path 961" d="M196.159,366.6a6.5,6.5,0,1,1-6.5-6.5,6.5,6.5,0,0,1,6.5,6.5" transform="translate(-9.637 3.731)" fill="#7c959f"/>
    <path id="Path_962" data-name="Path 962" d="M214.636,366.6a6.5,6.5,0,1,1-6.5-6.5,6.5,6.5,0,0,1,6.5,6.5" transform="translate(-8.549 3.731)" fill="#7c959f"/>
    <path id="Path_963" data-name="Path 963" d="M233.113,366.6a6.5,6.5,0,1,1-6.5-6.5,6.5,6.5,0,0,1,6.5,6.5" transform="translate(-7.46 3.731)" fill="#7c959f"/>
    <path id="Path_964" data-name="Path 964" d="M251.59,366.6a6.5,6.5,0,1,1-6.5-6.5,6.5,6.5,0,0,1,6.5,6.5" transform="translate(-6.372 3.731)" fill="#7c959f"/>
    <path id="Path_965" data-name="Path 965" d="M325.5,366.6a6.5,6.5,0,1,1-6.5-6.5,6.5,6.5,0,0,1,6.5,6.5" transform="translate(-2.019 3.731)" fill="#7c959f"/>
    <path id="Path_966" data-name="Path 966" d="M343.975,366.6a6.5,6.5,0,1,1-6.5-6.5,6.5,6.5,0,0,1,6.5,6.5" transform="translate(-0.931 3.731)" fill="#7c959f"/>
    <path id="Path_967" data-name="Path 967" d="M362.452,366.6a6.5,6.5,0,1,1-6.5-6.5,6.5,6.5,0,0,1,6.5,6.5" transform="translate(0.157 3.731)" fill="#7c959f"/>
    <path id="Path_968" data-name="Path 968" d="M380.929,366.6a6.5,6.5,0,1,1-6.5-6.5,6.5,6.5,0,0,1,6.5,6.5" transform="translate(1.246 3.731)" fill="#7c959f"/>
    <path id="Path_969" data-name="Path 969" d="M399.406,366.6a6.5,6.5,0,1,1-6.5-6.5,6.5,6.5,0,0,1,6.5,6.5" transform="translate(2.334 3.731)" fill="#7c959f"/>
    <path id="Path_970" data-name="Path 970" d="M417.883,366.6a6.5,6.5,0,1,1-6.5-6.5,6.5,6.5,0,0,1,6.5,6.5" transform="translate(3.422 3.731)" fill="#7c959f"/>
    <path id="Path_971" data-name="Path 971" d="M510.268,366.6a6.5,6.5,0,1,1-6.5-6.5,6.5,6.5,0,0,1,6.5,6.5" transform="translate(8.863 3.731)" fill="#fb3f07"/>
    <path id="Path_972" data-name="Path 972" d="M528.745,366.6a6.5,6.5,0,1,1-6.5-6.5,6.5,6.5,0,0,1,6.5,6.5" transform="translate(9.952 3.731)" fill="#7c959f"/>
    <path id="Path_973" data-name="Path 973" d="M547.222,366.6a6.5,6.5,0,1,1-6.5-6.5,6.5,6.5,0,0,1,6.5,6.5" transform="translate(11.04 3.731)" fill="#7c959f"/>
    <path id="Path_974" data-name="Path 974" d="M565.7,366.6a6.5,6.5,0,1,1-6.5-6.5,6.5,6.5,0,0,1,6.5,6.5" transform="translate(12.128 3.731)" fill="#7c959f"/>
    <path id="Path_975" data-name="Path 975" d="M584.176,366.6a6.5,6.5,0,1,1-6.5-6.5,6.5,6.5,0,0,1,6.5,6.5" transform="translate(13.216 3.731)" fill="#7c959f"/>
    <path id="Path_976" data-name="Path 976" d="M196.159,383.824a6.5,6.5,0,1,1-6.5-6.5,6.5,6.5,0,0,1,6.5,6.5" transform="translate(-9.637 4.745)" fill="#7c959f"/>
    <path id="Path_977" data-name="Path 977" d="M214.636,383.824a6.5,6.5,0,1,1-6.5-6.5,6.5,6.5,0,0,1,6.5,6.5" transform="translate(-8.549 4.745)" fill="#7c959f"/>
    <path id="Path_978" data-name="Path 978" d="M233.113,383.824a6.5,6.5,0,1,1-6.5-6.5,6.5,6.5,0,0,1,6.5,6.5" transform="translate(-7.46 4.745)" fill="#7c959f"/>
    <path id="Path_979" data-name="Path 979" d="M251.59,383.824a6.5,6.5,0,1,1-6.5-6.5,6.5,6.5,0,0,1,6.5,6.5" transform="translate(-6.372 4.745)" fill="#7c959f"/>
    <path id="Path_980" data-name="Path 980" d="M270.067,383.824a6.5,6.5,0,1,1-6.5-6.5,6.5,6.5,0,0,1,6.5,6.5" transform="translate(-5.284 4.745)" fill="#7c959f"/>
    <path id="Path_981" data-name="Path 981" d="M362.452,383.824a6.5,6.5,0,1,1-6.5-6.5,6.5,6.5,0,0,1,6.5,6.5" transform="translate(0.157 4.745)" fill="#7c959f"/>
    <path id="Path_982" data-name="Path 982" d="M380.929,383.824a6.5,6.5,0,1,1-6.5-6.5,6.5,6.5,0,0,1,6.5,6.5" transform="translate(1.246 4.745)" fill="#7c959f"/>
    <path id="Path_983" data-name="Path 983" d="M399.406,383.824a6.5,6.5,0,1,1-6.5-6.5,6.5,6.5,0,0,1,6.5,6.5" transform="translate(2.334 4.745)" fill="#7c959f"/>
    <path id="Path_984" data-name="Path 984" d="M584.176,383.824a6.5,6.5,0,1,1-6.5-6.5,6.5,6.5,0,0,1,6.5,6.5" transform="translate(13.216 4.745)" fill="#7c959f"/>
    <path id="Path_985" data-name="Path 985" d="M214.636,401.049a6.5,6.5,0,1,1-6.5-6.5,6.5,6.5,0,0,1,6.5,6.5" transform="translate(-8.549 5.76)" fill="#fb3f07"/>
    <path id="Path_986" data-name="Path 986" d="M233.113,401.049a6.5,6.5,0,1,1-6.5-6.5,6.5,6.5,0,0,1,6.5,6.5" transform="translate(-7.46 5.76)" fill="#7c959f"/>
    <path id="Path_987" data-name="Path 987" d="M251.59,401.049a6.5,6.5,0,1,1-6.5-6.5,6.5,6.5,0,0,1,6.5,6.5" transform="translate(-6.372 5.76)" fill="#7c959f"/>
    <path id="Path_988" data-name="Path 988" d="M362.452,401.049a6.5,6.5,0,1,1-6.5-6.5,6.5,6.5,0,0,1,6.5,6.5" transform="translate(0.157 5.76)" fill="#7c959f"/>
    <path id="Path_989" data-name="Path 989" d="M380.929,401.049a6.5,6.5,0,1,1-6.5-6.5,6.5,6.5,0,0,1,6.5,6.5" transform="translate(1.246 5.76)" fill="#7c959f"/>
    <path id="Path_990" data-name="Path 990" d="M399.406,401.049a6.5,6.5,0,1,1-6.5-6.5,6.5,6.5,0,0,1,6.5,6.5" transform="translate(2.334 5.76)" fill="#7c959f"/>
    <path id="Path_991" data-name="Path 991" d="M417.883,401.049a6.5,6.5,0,1,1-6.5-6.5,6.5,6.5,0,0,1,6.5,6.5" transform="translate(3.422 5.76)" fill="#7c959f"/>
    <path id="Path_992" data-name="Path 992" d="M547.222,401.049a6.5,6.5,0,1,1-6.5-6.5,6.5,6.5,0,0,1,6.5,6.5" transform="translate(11.04 5.76)" fill="#7c959f"/>
    <path id="Path_993" data-name="Path 993" d="M565.7,401.049a6.5,6.5,0,1,1-6.5-6.5,6.5,6.5,0,0,1,6.5,6.5" transform="translate(12.128 5.76)" fill="#fb3f07"/>
    <path id="Path_994" data-name="Path 994" d="M584.176,401.049a6.5,6.5,0,1,1-6.5-6.5,6.5,6.5,0,0,1,6.5,6.5" transform="translate(13.216 5.76)" fill="#7c959f"/>
    <path id="Path_995" data-name="Path 995" d="M214.636,418.274a6.5,6.5,0,1,1-6.5-6.5,6.5,6.5,0,0,1,6.5,6.5" transform="translate(-8.549 6.774)" fill="#7c959f"/>
    <path id="Path_996" data-name="Path 996" d="M233.113,418.274a6.5,6.5,0,1,1-6.5-6.5,6.5,6.5,0,0,1,6.5,6.5" transform="translate(-7.46 6.774)" fill="#7c959f"/>
    <path id="Path_997" data-name="Path 997" d="M251.59,418.274a6.5,6.5,0,1,1-6.5-6.5,6.5,6.5,0,0,1,6.5,6.5" transform="translate(-6.372 6.774)" fill="#7c959f"/>
    <path id="Path_998" data-name="Path 998" d="M362.452,418.274a6.5,6.5,0,1,1-6.5-6.5,6.5,6.5,0,0,1,6.5,6.5" transform="translate(0.157 6.774)" fill="#7c959f"/>
    <path id="Path_999" data-name="Path 999" d="M380.929,418.274a6.5,6.5,0,1,1-6.5-6.5,6.5,6.5,0,0,1,6.5,6.5" transform="translate(1.246 6.774)" fill="#7c959f"/>
    <path id="Path_1000" data-name="Path 1000" d="M528.745,418.274a6.5,6.5,0,1,1-6.5-6.5,6.5,6.5,0,0,1,6.5,6.5" transform="translate(9.952 6.774)" fill="#7c959f"/>
    <path id="Path_1001" data-name="Path 1001" d="M547.222,418.274a6.5,6.5,0,1,1-6.5-6.5,6.5,6.5,0,0,1,6.5,6.5" transform="translate(11.04 6.774)" fill="#7c959f"/>
    <path id="Path_1002" data-name="Path 1002" d="M565.7,418.274a6.5,6.5,0,1,1-6.5-6.5,6.5,6.5,0,0,1,6.5,6.5" transform="translate(12.128 6.774)" fill="#7c959f"/>
    <path id="Path_1003" data-name="Path 1003" d="M584.176,418.274a6.5,6.5,0,1,1-6.5-6.5,6.5,6.5,0,0,1,6.5,6.5" transform="translate(13.216 6.774)" fill="#7c959f"/>
    <path id="Path_1004" data-name="Path 1004" d="M602.653,418.274a6.5,6.5,0,1,1-6.5-6.5,6.5,6.5,0,0,1,6.5,6.5" transform="translate(14.305 6.774)" fill="#7c959f"/>
    <path id="Path_1005" data-name="Path 1005" d="M214.636,435.5a6.5,6.5,0,1,1-6.5-6.5,6.5,6.5,0,0,1,6.5,6.5" transform="translate(-8.549 7.789)" fill="#7c959f"/>
    <path id="Path_1006" data-name="Path 1006" d="M233.113,435.5a6.5,6.5,0,1,1-6.5-6.5,6.5,6.5,0,0,1,6.5,6.5" transform="translate(-7.46 7.789)" fill="#7c959f"/>
    <path id="Path_1007" data-name="Path 1007" d="M362.452,435.5a6.5,6.5,0,1,1-6.5-6.5,6.5,6.5,0,0,1,6.5,6.5" transform="translate(0.157 7.789)" fill="#7c959f"/>
    <path id="Path_1008" data-name="Path 1008" d="M380.929,435.5a6.5,6.5,0,1,1-6.5-6.5,6.5,6.5,0,0,1,6.5,6.5" transform="translate(1.246 7.789)" fill="#7c959f"/>
    <path id="Path_1009" data-name="Path 1009" d="M584.176,435.5a6.5,6.5,0,1,1-6.5-6.5,6.5,6.5,0,0,1,6.5,6.5" transform="translate(13.216 7.789)" fill="#7c959f"/>
    <path id="Path_1010" data-name="Path 1010" d="M602.653,435.5a6.5,6.5,0,1,1-6.5-6.5,6.5,6.5,0,0,1,6.5,6.5" transform="translate(14.305 7.789)" fill="#7c959f"/>
    <path id="Path_1011" data-name="Path 1011" d="M639.607,435.5a6.5,6.5,0,1,1-6.5-6.5,6.5,6.5,0,0,1,6.5,6.5" transform="translate(16.481 7.789)" fill="#7c959f"/>
    <path id="Path_1012" data-name="Path 1012" d="M214.636,452.724a6.5,6.5,0,1,1-6.5-6.5,6.5,6.5,0,0,1,6.5,6.5" transform="translate(-8.549 8.803)" fill="#7c959f"/>
    <path id="Path_1013" data-name="Path 1013" d="M584.176,452.724a6.5,6.5,0,1,1-6.5-6.5,6.5,6.5,0,0,1,6.5,6.5" transform="translate(13.216 8.803)" fill="#7c959f"/>
    <path id="Path_1014" data-name="Path 1014" d="M621.13,452.724a6.5,6.5,0,1,1-6.5-6.5,6.5,6.5,0,0,1,6.5,6.5" transform="translate(15.393 8.803)" fill="#7c959f"/>
    <path id="Path_1015" data-name="Path 1015" d="M214.636,469.949a6.5,6.5,0,1,1-6.5-6.5,6.5,6.5,0,0,1,6.5,6.5" transform="translate(-8.549 9.818)" fill="#7c959f"/>
  </g>
</svg>
